G04 #@! TF.GenerationSoftware,KiCad,Pcbnew,5.1.8*
G04 #@! TF.CreationDate,2020-11-29T11:20:09+01:00*
G04 #@! TF.ProjectId,mssculpt,6d737363-756c-4707-942e-6b696361645f,rev?*
G04 #@! TF.SameCoordinates,Original*
G04 #@! TF.FileFunction,Copper,L1,Top*
G04 #@! TF.FilePolarity,Positive*
%FSLAX46Y46*%
G04 Gerber Fmt 4.6, Leading zero omitted, Abs format (unit mm)*
G04 Created by KiCad (PCBNEW 5.1.8) date 2020-11-29 11:20:09*
%MOMM*%
%LPD*%
G01*
G04 APERTURE LIST*
G04 #@! TA.AperFunction,ComponentPad*
%ADD10O,1.200000X1.750000*%
G04 #@! TD*
G04 #@! TA.AperFunction,SMDPad,CuDef*
%ADD11R,0.700000X1.800000*%
G04 #@! TD*
G04 #@! TA.AperFunction,SMDPad,CuDef*
%ADD12R,1.800000X0.700000*%
G04 #@! TD*
G04 #@! TA.AperFunction,ComponentPad*
%ADD13R,0.850000X0.850000*%
G04 #@! TD*
G04 #@! TA.AperFunction,ComponentPad*
%ADD14O,0.850000X0.850000*%
G04 #@! TD*
G04 #@! TA.AperFunction,SMDPad,CuDef*
%ADD15R,2.000000X3.000000*%
G04 #@! TD*
G04 #@! TA.AperFunction,SMDPad,CuDef*
%ADD16R,0.400000X1.000000*%
G04 #@! TD*
G04 #@! TA.AperFunction,ViaPad*
%ADD17C,0.800000*%
G04 #@! TD*
G04 #@! TA.AperFunction,Conductor*
%ADD18C,0.250000*%
G04 #@! TD*
G04 #@! TA.AperFunction,Conductor*
%ADD19C,0.500000*%
G04 #@! TD*
G04 #@! TA.AperFunction,Conductor*
%ADD20C,0.254000*%
G04 #@! TD*
G04 #@! TA.AperFunction,Conductor*
%ADD21C,0.100000*%
G04 #@! TD*
G04 APERTURE END LIST*
D10*
X162500000Y-88500000D03*
X164000000Y-88500000D03*
D11*
X196720000Y-82250000D03*
X195450000Y-82250000D03*
X192910000Y-82250000D03*
X191640000Y-82250000D03*
X190370000Y-82250000D03*
X189100000Y-82250000D03*
X187830000Y-82250000D03*
X186560000Y-82250000D03*
X185290000Y-82250000D03*
X184020000Y-82250000D03*
X182750000Y-82250000D03*
X181480000Y-82250000D03*
X180210000Y-82250000D03*
X178940000Y-82250000D03*
X177670000Y-82250000D03*
X176400000Y-82250000D03*
D12*
X174650000Y-84015000D03*
X174650000Y-85285000D03*
X174650000Y-86555000D03*
X174650000Y-87825000D03*
X174650000Y-89095000D03*
X174650000Y-90365000D03*
X174650000Y-91635000D03*
X174650000Y-92905000D03*
X174650000Y-94175000D03*
X174650000Y-95445000D03*
X174650000Y-96715000D03*
X174650000Y-97985000D03*
D11*
X176400000Y-99750000D03*
X177670000Y-99750000D03*
X178940000Y-99750000D03*
X180210000Y-99750000D03*
X181480000Y-99750000D03*
X182750000Y-99750000D03*
X184020000Y-99750000D03*
X185290000Y-99750000D03*
X186560000Y-99750000D03*
X187830000Y-99750000D03*
X189100000Y-99750000D03*
X190370000Y-99750000D03*
X191640000Y-99750000D03*
X192910000Y-99750000D03*
X195450000Y-99750000D03*
X196720000Y-99750000D03*
D13*
X157000000Y-86000000D03*
D14*
X157000000Y-87000000D03*
X157000000Y-88000000D03*
X157000000Y-89000000D03*
X157000000Y-90000000D03*
X157000000Y-91000000D03*
D15*
X156700000Y-116790000D03*
X191300000Y-116790000D03*
D16*
X159500000Y-114090000D03*
X160500000Y-114090000D03*
X161500000Y-114090000D03*
X162500000Y-114090000D03*
X163500000Y-114090000D03*
X164500000Y-114090000D03*
X165500000Y-114090000D03*
X166500000Y-114090000D03*
X167500000Y-114090000D03*
X168500000Y-114090000D03*
X169500000Y-114090000D03*
X170500000Y-114090000D03*
X171500000Y-114090000D03*
X172500000Y-114090000D03*
X173500000Y-114090000D03*
X174500000Y-114090000D03*
X175500000Y-114090000D03*
X176500000Y-114090000D03*
X177500000Y-114090000D03*
X178500000Y-114090000D03*
X179500000Y-114090000D03*
X180500000Y-114090000D03*
X181500000Y-114090000D03*
X182500000Y-114090000D03*
X183500000Y-114090000D03*
X184500000Y-114090000D03*
X185500000Y-114090000D03*
X186500000Y-114090000D03*
X187500000Y-114090000D03*
X188500000Y-114090000D03*
G04 #@! TA.AperFunction,SMDPad,CuDef*
G36*
G01*
X170525000Y-81512500D02*
X171475000Y-81512500D01*
G75*
G02*
X171725000Y-81762500I0J-250000D01*
G01*
X171725000Y-82437500D01*
G75*
G02*
X171475000Y-82687500I-250000J0D01*
G01*
X170525000Y-82687500D01*
G75*
G02*
X170275000Y-82437500I0J250000D01*
G01*
X170275000Y-81762500D01*
G75*
G02*
X170525000Y-81512500I250000J0D01*
G01*
G37*
G04 #@! TD.AperFunction*
G04 #@! TA.AperFunction,SMDPad,CuDef*
G36*
G01*
X170525000Y-83587500D02*
X171475000Y-83587500D01*
G75*
G02*
X171725000Y-83837500I0J-250000D01*
G01*
X171725000Y-84512500D01*
G75*
G02*
X171475000Y-84762500I-250000J0D01*
G01*
X170525000Y-84762500D01*
G75*
G02*
X170275000Y-84512500I0J250000D01*
G01*
X170275000Y-83837500D01*
G75*
G02*
X170525000Y-83587500I250000J0D01*
G01*
G37*
G04 #@! TD.AperFunction*
G04 #@! TA.AperFunction,SMDPad,CuDef*
G36*
G01*
X168349999Y-81512500D02*
X169250001Y-81512500D01*
G75*
G02*
X169500000Y-81762499I0J-249999D01*
G01*
X169500000Y-82462501D01*
G75*
G02*
X169250001Y-82712500I-249999J0D01*
G01*
X168349999Y-82712500D01*
G75*
G02*
X168100000Y-82462501I0J249999D01*
G01*
X168100000Y-81762499D01*
G75*
G02*
X168349999Y-81512500I249999J0D01*
G01*
G37*
G04 #@! TD.AperFunction*
G04 #@! TA.AperFunction,SMDPad,CuDef*
G36*
G01*
X168349999Y-83512500D02*
X169250001Y-83512500D01*
G75*
G02*
X169500000Y-83762499I0J-249999D01*
G01*
X169500000Y-84462501D01*
G75*
G02*
X169250001Y-84712500I-249999J0D01*
G01*
X168349999Y-84712500D01*
G75*
G02*
X168100000Y-84462501I0J249999D01*
G01*
X168100000Y-83762499D01*
G75*
G02*
X168349999Y-83512500I249999J0D01*
G01*
G37*
G04 #@! TD.AperFunction*
D17*
X152000000Y-82000000D03*
X154000000Y-82000000D03*
X156000000Y-82000000D03*
X158000000Y-82000000D03*
X160000000Y-82000000D03*
X162000000Y-82000000D03*
X164000000Y-82000000D03*
X152000000Y-84000000D03*
X154000000Y-84000000D03*
X160000000Y-84000000D03*
X162000000Y-84000000D03*
X164000000Y-84000000D03*
X154000000Y-86000000D03*
X154000000Y-88000000D03*
X154000000Y-90000000D03*
X152000000Y-99000000D03*
X154000000Y-99000000D03*
X154000000Y-101000000D03*
X152000000Y-101000000D03*
X152000000Y-103000000D03*
X154000000Y-103000000D03*
X154000000Y-105000000D03*
X152000000Y-105000000D03*
X152000000Y-107000000D03*
X156000000Y-105000000D03*
X156000000Y-103000000D03*
X156000000Y-101000000D03*
X156000000Y-99000000D03*
X158000000Y-99000000D03*
X158000000Y-101000000D03*
X158000000Y-103000000D03*
X158000000Y-105000000D03*
X158000000Y-97000000D03*
X158000000Y-95000000D03*
X158000000Y-93000000D03*
X160000000Y-93000000D03*
X160000000Y-95000000D03*
X160000000Y-97000000D03*
X160000000Y-99000000D03*
X160000000Y-101000000D03*
X160000000Y-103000000D03*
X160000000Y-105000000D03*
X160000000Y-107000000D03*
X160000000Y-109000000D03*
X160000000Y-111000000D03*
X152000000Y-109000000D03*
X152000000Y-111000000D03*
X152000000Y-113000000D03*
X154000000Y-113000000D03*
X156000000Y-113000000D03*
X158000000Y-113000000D03*
X152000000Y-115000000D03*
X152000000Y-117000000D03*
X154000000Y-117000000D03*
X154000000Y-115000000D03*
X174000000Y-103000000D03*
X172000000Y-103000000D03*
X172000000Y-105000000D03*
X174000000Y-105000000D03*
X174000000Y-107000000D03*
X172000000Y-107000000D03*
X172000000Y-109000000D03*
X172000000Y-99000000D03*
X174000000Y-99000000D03*
X196500000Y-102000000D03*
X195000000Y-102000000D03*
X195000000Y-104000000D03*
X196500000Y-104000000D03*
X196500000Y-106000000D03*
X195000000Y-106000000D03*
X196500000Y-108000000D03*
X196500000Y-110000000D03*
X196500000Y-112000000D03*
X195000000Y-114000000D03*
X193000000Y-114000000D03*
X191000000Y-114000000D03*
X193000000Y-102000000D03*
X193000000Y-104000000D03*
X193000000Y-106000000D03*
X196000000Y-85000000D03*
X194000000Y-85000000D03*
X192000000Y-85000000D03*
X192000000Y-87000000D03*
X194000000Y-87000000D03*
X196000000Y-87000000D03*
X196000000Y-89000000D03*
X194000000Y-89000000D03*
X192000000Y-89000000D03*
X192000000Y-91000000D03*
X194000000Y-91000000D03*
X196000000Y-91000000D03*
X196000000Y-93000000D03*
X194000000Y-93000000D03*
X192000000Y-93000000D03*
X192000000Y-95000000D03*
X194000000Y-95000000D03*
X196000000Y-95000000D03*
X196000000Y-97000000D03*
X194000000Y-97000000D03*
X192000000Y-97000000D03*
X186000000Y-88000000D03*
X186000000Y-90000000D03*
X186000000Y-92000000D03*
X178000000Y-85000000D03*
X178000000Y-87000000D03*
X178000000Y-89000000D03*
X178000000Y-91000000D03*
X168000000Y-87000000D03*
X170000000Y-87000000D03*
X168000000Y-89000000D03*
X172000000Y-101000000D03*
X174000000Y-101000000D03*
X172000000Y-111000000D03*
X174000000Y-109000000D03*
X171500000Y-112800000D03*
X181500000Y-84100000D03*
X182700000Y-84100000D03*
X172512660Y-112812660D03*
X184000000Y-84100000D03*
X173519035Y-112806285D03*
X185300000Y-84100000D03*
X174612660Y-112812660D03*
X186500000Y-112750000D03*
X186500000Y-84100000D03*
X187500000Y-112750000D03*
X187800000Y-84100000D03*
X188500000Y-112750000D03*
X189100000Y-84100000D03*
X167300000Y-82200000D03*
X177600000Y-94100000D03*
X177600000Y-95100000D03*
X177600000Y-96100000D03*
D18*
X171015000Y-84015000D02*
X171000000Y-84000000D01*
D19*
X174650000Y-84015000D02*
X171015000Y-84015000D01*
D18*
X168825000Y-84000000D02*
X168800000Y-84025000D01*
X171000000Y-84000000D02*
X168825000Y-84000000D01*
D19*
X164000000Y-89625000D02*
X164000000Y-88500000D01*
X162625000Y-91000000D02*
X164000000Y-89625000D01*
X157000000Y-91000000D02*
X162625000Y-91000000D01*
X164325000Y-88500000D02*
X168800000Y-84025000D01*
X164000000Y-88500000D02*
X164325000Y-88500000D01*
D18*
X173715000Y-85285000D02*
X174650000Y-85285000D01*
X162500000Y-96500000D02*
X173715000Y-85285000D01*
X162500000Y-114090000D02*
X162500000Y-96500000D01*
X173545000Y-86555000D02*
X174650000Y-86555000D01*
X163500000Y-96600000D02*
X173545000Y-86555000D01*
X163500000Y-114090000D02*
X163500000Y-96600000D01*
X173575000Y-87825000D02*
X174650000Y-87825000D01*
X164500000Y-96900000D02*
X173575000Y-87825000D01*
X164500000Y-114090000D02*
X164500000Y-96900000D01*
X173500000Y-89095000D02*
X174650000Y-89095000D01*
X165500000Y-97095000D02*
X173500000Y-89095000D01*
X165500000Y-114090000D02*
X165500000Y-97095000D01*
X173535000Y-90365000D02*
X174650000Y-90365000D01*
X166500000Y-97400000D02*
X173535000Y-90365000D01*
X166500000Y-114090000D02*
X166500000Y-97400000D01*
X173500000Y-91635000D02*
X174650000Y-91635000D01*
X167500000Y-97635000D02*
X173500000Y-91635000D01*
X167500000Y-114090000D02*
X167500000Y-97635000D01*
X173595000Y-92905000D02*
X174650000Y-92905000D01*
X168500000Y-98000000D02*
X173595000Y-92905000D01*
X168500000Y-114090000D02*
X168500000Y-98000000D01*
X171285000Y-96715000D02*
X174650000Y-96715000D01*
X169500000Y-98500000D02*
X171285000Y-96715000D01*
X169500000Y-114090000D02*
X169500000Y-98500000D01*
X171815000Y-97985000D02*
X174650000Y-97985000D01*
X170500000Y-99300000D02*
X171815000Y-97985000D01*
X170500000Y-114090000D02*
X170500000Y-99300000D01*
X171500000Y-114090000D02*
X171500000Y-112800000D01*
X181500000Y-82270000D02*
X181480000Y-82250000D01*
X181500000Y-84100000D02*
X181500000Y-82270000D01*
X182700000Y-82300000D02*
X182750000Y-82250000D01*
X182700000Y-84100000D02*
X182700000Y-82300000D01*
X172500000Y-114090000D02*
X172500000Y-112825320D01*
X172500000Y-112825320D02*
X172512660Y-112812660D01*
X184000000Y-82270000D02*
X184020000Y-82250000D01*
X184000000Y-84100000D02*
X184000000Y-82270000D01*
X173500000Y-114090000D02*
X173500000Y-112825320D01*
X173500000Y-112825320D02*
X173519035Y-112806285D01*
X185300000Y-82260000D02*
X185290000Y-82250000D01*
X185300000Y-84100000D02*
X185300000Y-82260000D01*
X174500000Y-114090000D02*
X174500000Y-112925320D01*
X174500000Y-112925320D02*
X174612660Y-112812660D01*
X175500000Y-100650000D02*
X176400000Y-99750000D01*
X175500000Y-114090000D02*
X175500000Y-100650000D01*
X177670000Y-100300000D02*
X177670000Y-99750000D01*
X176500000Y-101470000D02*
X177670000Y-100300000D01*
X176500000Y-114090000D02*
X176500000Y-101470000D01*
X178940000Y-100300000D02*
X178940000Y-99750000D01*
X177500000Y-101740000D02*
X178940000Y-100300000D01*
X177500000Y-114090000D02*
X177500000Y-101740000D01*
X178500000Y-102010000D02*
X180210000Y-100300000D01*
X180210000Y-100300000D02*
X180210000Y-99750000D01*
X178500000Y-114090000D02*
X178500000Y-102010000D01*
X181480000Y-100300000D02*
X181480000Y-99750000D01*
X179500000Y-102280000D02*
X181480000Y-100300000D01*
X179500000Y-114090000D02*
X179500000Y-102280000D01*
X182750000Y-100300000D02*
X182750000Y-99750000D01*
X180500000Y-102550000D02*
X182750000Y-100300000D01*
X180500000Y-114090000D02*
X180500000Y-102550000D01*
X184020000Y-100300000D02*
X184020000Y-99750000D01*
X181500000Y-102820000D02*
X184020000Y-100300000D01*
X181500000Y-114090000D02*
X181500000Y-102820000D01*
X185290000Y-100300000D02*
X185290000Y-99750000D01*
X182500000Y-103090000D02*
X185290000Y-100300000D01*
X182500000Y-114090000D02*
X182500000Y-103090000D01*
X189870000Y-101400000D02*
X190370000Y-100900000D01*
X185600000Y-101400000D02*
X189870000Y-101400000D01*
X190370000Y-100900000D02*
X190370000Y-99750000D01*
X183500000Y-103500000D02*
X185600000Y-101400000D01*
X183500000Y-114090000D02*
X183500000Y-103500000D01*
X191640000Y-100996411D02*
X191640000Y-99750000D01*
X190536411Y-102100000D02*
X191640000Y-100996411D01*
X186300000Y-102100000D02*
X190536411Y-102100000D01*
X184400000Y-104000000D02*
X186300000Y-102100000D01*
X184400000Y-113990000D02*
X184400000Y-104000000D01*
X184500000Y-114090000D02*
X184400000Y-113990000D01*
X185500000Y-114090000D02*
X185500000Y-113340000D01*
X186888500Y-102774999D02*
X191035001Y-102774999D01*
X185500000Y-113340000D02*
X185200000Y-113040000D01*
X192910000Y-100900000D02*
X192910000Y-99750000D01*
X185200000Y-113040000D02*
X185200000Y-104463499D01*
X185200000Y-104463499D02*
X186888500Y-102774999D01*
X191035001Y-102774999D02*
X192910000Y-100900000D01*
X186500000Y-114090000D02*
X186500000Y-112750000D01*
X186500000Y-82310000D02*
X186560000Y-82250000D01*
X186500000Y-84100000D02*
X186500000Y-82310000D01*
X187500000Y-114090000D02*
X187500000Y-112750000D01*
X187750000Y-82330000D02*
X187830000Y-82250000D01*
X187800000Y-82280000D02*
X187830000Y-82250000D01*
X187800000Y-84100000D02*
X187800000Y-82280000D01*
X168800000Y-82200000D02*
X168900000Y-82200000D01*
X188500000Y-114090000D02*
X188500000Y-112750000D01*
X189000000Y-82350000D02*
X189100000Y-82250000D01*
X189100000Y-84100000D02*
X189100000Y-82250000D01*
X168800000Y-82200000D02*
X167300000Y-82200000D01*
X184600000Y-94100000D02*
X177600000Y-94100000D01*
X189100000Y-98600000D02*
X184600000Y-94100000D01*
X189100000Y-99750000D02*
X189100000Y-98600000D01*
X187830000Y-98600000D02*
X187830000Y-99750000D01*
X184330000Y-95100000D02*
X187830000Y-98600000D01*
X177600000Y-95100000D02*
X184330000Y-95100000D01*
X186560000Y-98600000D02*
X186560000Y-99750000D01*
X184060000Y-96100000D02*
X186560000Y-98600000D01*
X177600000Y-96100000D02*
X184060000Y-96100000D01*
D20*
X196840001Y-99967572D02*
X196840000Y-99967582D01*
X196840001Y-114226618D01*
X192938072Y-118128548D01*
X192938072Y-115290000D01*
X192925812Y-115165518D01*
X192889502Y-115045820D01*
X192830537Y-114935506D01*
X192751185Y-114838815D01*
X192654494Y-114759463D01*
X192544180Y-114700498D01*
X192424482Y-114664188D01*
X192300000Y-114651928D01*
X190300000Y-114651928D01*
X190175518Y-114664188D01*
X190055820Y-114700498D01*
X189945506Y-114759463D01*
X189848815Y-114838815D01*
X189769463Y-114935506D01*
X189710498Y-115045820D01*
X189674188Y-115165518D01*
X189661928Y-115290000D01*
X189661928Y-118290000D01*
X189674188Y-118414482D01*
X189710498Y-118534180D01*
X189769463Y-118644494D01*
X189848815Y-118741185D01*
X189945506Y-118820537D01*
X190055820Y-118879502D01*
X190175518Y-118915812D01*
X190300000Y-118928072D01*
X192138548Y-118928072D01*
X191726620Y-119340000D01*
X150660000Y-119340000D01*
X150660000Y-115290000D01*
X155061928Y-115290000D01*
X155061928Y-118290000D01*
X155074188Y-118414482D01*
X155110498Y-118534180D01*
X155169463Y-118644494D01*
X155248815Y-118741185D01*
X155345506Y-118820537D01*
X155455820Y-118879502D01*
X155575518Y-118915812D01*
X155700000Y-118928072D01*
X157700000Y-118928072D01*
X157824482Y-118915812D01*
X157944180Y-118879502D01*
X158054494Y-118820537D01*
X158151185Y-118741185D01*
X158230537Y-118644494D01*
X158289502Y-118534180D01*
X158325812Y-118414482D01*
X158338072Y-118290000D01*
X158338072Y-115290000D01*
X158325812Y-115165518D01*
X158289502Y-115045820D01*
X158230537Y-114935506D01*
X158151185Y-114838815D01*
X158054494Y-114759463D01*
X157944180Y-114700498D01*
X157824482Y-114664188D01*
X157700000Y-114651928D01*
X155700000Y-114651928D01*
X155575518Y-114664188D01*
X155455820Y-114700498D01*
X155345506Y-114759463D01*
X155248815Y-114838815D01*
X155169463Y-114935506D01*
X155110498Y-115045820D01*
X155074188Y-115165518D01*
X155061928Y-115290000D01*
X150660000Y-115290000D01*
X150660000Y-114577612D01*
X158662048Y-114577612D01*
X158671889Y-114702308D01*
X158705869Y-114822688D01*
X158762680Y-114934126D01*
X158840140Y-115032340D01*
X158935272Y-115113555D01*
X159044421Y-115174650D01*
X159163391Y-115213277D01*
X159268250Y-115225000D01*
X159427000Y-115066250D01*
X159427000Y-114217000D01*
X158823750Y-114217000D01*
X158665000Y-114375750D01*
X158662048Y-114577612D01*
X150660000Y-114577612D01*
X150660000Y-113602388D01*
X158662048Y-113602388D01*
X158665000Y-113804250D01*
X158823750Y-113963000D01*
X159427000Y-113963000D01*
X159427000Y-113113750D01*
X159268250Y-112955000D01*
X159163391Y-112966723D01*
X159044421Y-113005350D01*
X158935272Y-113066445D01*
X158840140Y-113147660D01*
X158762680Y-113245874D01*
X158705869Y-113357312D01*
X158671889Y-113477692D01*
X158662048Y-113602388D01*
X150660000Y-113602388D01*
X150660000Y-108682168D01*
X152273000Y-108682168D01*
X152273000Y-109317832D01*
X152397012Y-109941281D01*
X152640270Y-110528558D01*
X152993425Y-111057093D01*
X153442907Y-111506575D01*
X153971442Y-111859730D01*
X154558719Y-112102988D01*
X155182168Y-112227000D01*
X155817832Y-112227000D01*
X156441281Y-112102988D01*
X157028558Y-111859730D01*
X157557093Y-111506575D01*
X158006575Y-111057093D01*
X158359730Y-110528558D01*
X158602988Y-109941281D01*
X158727000Y-109317832D01*
X158727000Y-108682168D01*
X158602988Y-108058719D01*
X158359730Y-107471442D01*
X158006575Y-106942907D01*
X157557093Y-106493425D01*
X157028558Y-106140270D01*
X156441281Y-105897012D01*
X155817832Y-105773000D01*
X155182168Y-105773000D01*
X154558719Y-105897012D01*
X153971442Y-106140270D01*
X153442907Y-106493425D01*
X152993425Y-106942907D01*
X152640270Y-107471442D01*
X152397012Y-108058719D01*
X152273000Y-108682168D01*
X150660000Y-108682168D01*
X150660000Y-98160000D01*
X153532419Y-98160000D01*
X153534718Y-98159774D01*
X153539519Y-98159740D01*
X153569333Y-98156606D01*
X153599309Y-98156606D01*
X153608474Y-98155643D01*
X154093348Y-98101256D01*
X154151863Y-98088818D01*
X154210540Y-98077200D01*
X154219343Y-98074475D01*
X154684419Y-97926944D01*
X154739391Y-97903383D01*
X154794706Y-97880584D01*
X154802812Y-97876201D01*
X155230374Y-97641147D01*
X155279736Y-97607348D01*
X155329558Y-97574247D01*
X155336658Y-97568373D01*
X155710423Y-97254747D01*
X155752286Y-97211997D01*
X155794721Y-97169858D01*
X155800545Y-97162717D01*
X156106274Y-96782467D01*
X156139034Y-96732404D01*
X156172479Y-96682820D01*
X156176805Y-96674683D01*
X156402854Y-96242291D01*
X156425250Y-96186859D01*
X156448444Y-96131683D01*
X156451107Y-96122861D01*
X156588865Y-95654798D01*
X156600066Y-95596079D01*
X156612103Y-95537442D01*
X156613002Y-95528271D01*
X156657223Y-95042365D01*
X156656805Y-94982547D01*
X156657223Y-94922730D01*
X156656323Y-94913558D01*
X156605322Y-94428316D01*
X156593302Y-94369760D01*
X156582086Y-94310959D01*
X156579422Y-94302138D01*
X156435142Y-93836044D01*
X156411954Y-93780881D01*
X156389552Y-93725435D01*
X156385226Y-93717299D01*
X156153162Y-93288106D01*
X156119729Y-93238539D01*
X156086958Y-93188460D01*
X156081134Y-93181319D01*
X155770125Y-92805374D01*
X155727708Y-92763252D01*
X155685826Y-92720483D01*
X155678725Y-92714610D01*
X155300618Y-92406233D01*
X155250809Y-92373141D01*
X155201437Y-92339334D01*
X155193331Y-92334952D01*
X154762527Y-92105890D01*
X154707233Y-92083099D01*
X154652240Y-92059529D01*
X154643437Y-92056804D01*
X154176347Y-91915781D01*
X154117653Y-91904159D01*
X154059156Y-91891725D01*
X154049991Y-91890762D01*
X153564405Y-91843150D01*
X153564402Y-91843150D01*
X153532419Y-91840000D01*
X150660000Y-91840000D01*
X150660000Y-90160000D01*
X151532419Y-90160000D01*
X151565884Y-90156704D01*
X151585349Y-90156704D01*
X151594514Y-90155741D01*
X151885438Y-90123108D01*
X151943941Y-90110672D01*
X152002629Y-90099052D01*
X152011432Y-90096327D01*
X152290476Y-90007809D01*
X152345412Y-89984263D01*
X152400764Y-89961449D01*
X152408870Y-89957065D01*
X152665408Y-89816032D01*
X152714753Y-89782245D01*
X152764591Y-89749133D01*
X152771691Y-89743259D01*
X152995949Y-89555084D01*
X153037793Y-89512354D01*
X153080248Y-89470195D01*
X153086072Y-89463053D01*
X153269509Y-89234903D01*
X153302251Y-89184869D01*
X153335714Y-89135258D01*
X153340040Y-89127122D01*
X153475670Y-88867687D01*
X153498082Y-88812215D01*
X153521260Y-88757077D01*
X153523923Y-88748255D01*
X153606578Y-88467417D01*
X153617785Y-88408669D01*
X153629816Y-88350059D01*
X153630715Y-88340888D01*
X153657247Y-88049344D01*
X153656829Y-87989528D01*
X153657247Y-87929712D01*
X153656348Y-87920541D01*
X153625748Y-87629395D01*
X153613710Y-87570753D01*
X153602510Y-87512037D01*
X153599847Y-87503216D01*
X153513279Y-87223560D01*
X153490101Y-87168422D01*
X153467689Y-87112950D01*
X153463362Y-87104814D01*
X153324123Y-86847298D01*
X153290701Y-86797749D01*
X153257920Y-86747653D01*
X153252095Y-86740512D01*
X153065490Y-86514945D01*
X153023054Y-86472804D01*
X152981191Y-86430055D01*
X152975081Y-86425000D01*
X155936928Y-86425000D01*
X155949188Y-86549482D01*
X155985498Y-86669180D01*
X155990168Y-86677917D01*
X155980460Y-86709938D01*
X156107743Y-86873000D01*
X156121201Y-86873000D01*
X156123815Y-86876185D01*
X156220506Y-86955537D01*
X156330820Y-87014502D01*
X156450518Y-87050812D01*
X156507969Y-87056470D01*
X156497902Y-87060640D01*
X156398587Y-87127000D01*
X156107743Y-87127000D01*
X155980460Y-87290062D01*
X155991128Y-87325250D01*
X156063994Y-87492882D01*
X156060640Y-87497902D01*
X155980735Y-87690809D01*
X155940000Y-87895599D01*
X155940000Y-88104401D01*
X155980735Y-88309191D01*
X156059771Y-88500000D01*
X155980735Y-88690809D01*
X155940000Y-88895599D01*
X155940000Y-89104401D01*
X155980735Y-89309191D01*
X156059771Y-89500000D01*
X155980735Y-89690809D01*
X155940000Y-89895599D01*
X155940000Y-90104401D01*
X155980735Y-90309191D01*
X156059771Y-90500000D01*
X155980735Y-90690809D01*
X155940000Y-90895599D01*
X155940000Y-91104401D01*
X155980735Y-91309191D01*
X156060640Y-91502098D01*
X156176644Y-91675711D01*
X156324289Y-91823356D01*
X156497902Y-91939360D01*
X156690809Y-92019265D01*
X156895599Y-92060000D01*
X157104401Y-92060000D01*
X157309191Y-92019265D01*
X157502098Y-91939360D01*
X157583454Y-91885000D01*
X162581531Y-91885000D01*
X162625000Y-91889281D01*
X162668469Y-91885000D01*
X162668477Y-91885000D01*
X162798490Y-91872195D01*
X162965313Y-91821589D01*
X163119059Y-91739411D01*
X163253817Y-91628817D01*
X163281534Y-91595044D01*
X164595050Y-90281529D01*
X164628817Y-90253817D01*
X164659842Y-90216014D01*
X164739411Y-90119059D01*
X164821589Y-89965314D01*
X164872195Y-89798490D01*
X164877056Y-89749133D01*
X164885000Y-89668477D01*
X164885000Y-89668469D01*
X164887809Y-89639942D01*
X165031833Y-89464449D01*
X165146511Y-89249900D01*
X165217130Y-89017101D01*
X165234354Y-88842224D01*
X168726007Y-85350572D01*
X169250001Y-85350572D01*
X169423255Y-85333508D01*
X169589851Y-85282972D01*
X169743387Y-85200905D01*
X169864841Y-85101230D01*
X169897038Y-85140462D01*
X170031614Y-85250905D01*
X170185150Y-85332972D01*
X170351746Y-85383508D01*
X170525000Y-85400572D01*
X171475000Y-85400572D01*
X171648254Y-85383508D01*
X171814850Y-85332972D01*
X171968386Y-85250905D01*
X172102962Y-85140462D01*
X172213405Y-85005886D01*
X172270002Y-84900000D01*
X173025198Y-84900000D01*
X161988998Y-95936201D01*
X161960000Y-95959999D01*
X161936202Y-95988997D01*
X161936201Y-95988998D01*
X161865026Y-96075724D01*
X161794454Y-96207754D01*
X161769286Y-96290724D01*
X161750998Y-96351014D01*
X161747700Y-96384502D01*
X161736324Y-96500000D01*
X161740001Y-96537333D01*
X161740000Y-112955868D01*
X161700000Y-112951928D01*
X161300000Y-112951928D01*
X161175518Y-112964188D01*
X161055820Y-113000498D01*
X161000000Y-113030335D01*
X160944180Y-113000498D01*
X160824482Y-112964188D01*
X160700000Y-112951928D01*
X160300000Y-112951928D01*
X160175518Y-112964188D01*
X160055820Y-113000498D01*
X160000110Y-113030276D01*
X159955579Y-113005350D01*
X159836609Y-112966723D01*
X159731750Y-112955000D01*
X159573000Y-113113750D01*
X159573000Y-113963000D01*
X159647000Y-113963000D01*
X159647000Y-114217000D01*
X159573000Y-114217000D01*
X159573000Y-115066250D01*
X159731750Y-115225000D01*
X159836609Y-115213277D01*
X159955579Y-115174650D01*
X160000110Y-115149724D01*
X160055820Y-115179502D01*
X160175518Y-115215812D01*
X160300000Y-115228072D01*
X160700000Y-115228072D01*
X160824482Y-115215812D01*
X160944180Y-115179502D01*
X161000000Y-115149665D01*
X161055820Y-115179502D01*
X161175518Y-115215812D01*
X161300000Y-115228072D01*
X161700000Y-115228072D01*
X161824482Y-115215812D01*
X161944180Y-115179502D01*
X162000000Y-115149665D01*
X162055820Y-115179502D01*
X162175518Y-115215812D01*
X162300000Y-115228072D01*
X162700000Y-115228072D01*
X162824482Y-115215812D01*
X162944180Y-115179502D01*
X163000000Y-115149665D01*
X163055820Y-115179502D01*
X163175518Y-115215812D01*
X163300000Y-115228072D01*
X163700000Y-115228072D01*
X163824482Y-115215812D01*
X163944180Y-115179502D01*
X164000000Y-115149665D01*
X164055820Y-115179502D01*
X164175518Y-115215812D01*
X164300000Y-115228072D01*
X164700000Y-115228072D01*
X164824482Y-115215812D01*
X164944180Y-115179502D01*
X165000000Y-115149665D01*
X165055820Y-115179502D01*
X165175518Y-115215812D01*
X165300000Y-115228072D01*
X165700000Y-115228072D01*
X165824482Y-115215812D01*
X165944180Y-115179502D01*
X166000000Y-115149665D01*
X166055820Y-115179502D01*
X166175518Y-115215812D01*
X166300000Y-115228072D01*
X166700000Y-115228072D01*
X166824482Y-115215812D01*
X166944180Y-115179502D01*
X167000000Y-115149665D01*
X167055820Y-115179502D01*
X167175518Y-115215812D01*
X167300000Y-115228072D01*
X167700000Y-115228072D01*
X167824482Y-115215812D01*
X167944180Y-115179502D01*
X168000000Y-115149665D01*
X168055820Y-115179502D01*
X168175518Y-115215812D01*
X168300000Y-115228072D01*
X168700000Y-115228072D01*
X168824482Y-115215812D01*
X168944180Y-115179502D01*
X169000000Y-115149665D01*
X169055820Y-115179502D01*
X169175518Y-115215812D01*
X169300000Y-115228072D01*
X169700000Y-115228072D01*
X169824482Y-115215812D01*
X169944180Y-115179502D01*
X170000000Y-115149665D01*
X170055820Y-115179502D01*
X170175518Y-115215812D01*
X170300000Y-115228072D01*
X170700000Y-115228072D01*
X170824482Y-115215812D01*
X170944180Y-115179502D01*
X171000000Y-115149665D01*
X171055820Y-115179502D01*
X171175518Y-115215812D01*
X171300000Y-115228072D01*
X171700000Y-115228072D01*
X171824482Y-115215812D01*
X171944180Y-115179502D01*
X172000000Y-115149665D01*
X172055820Y-115179502D01*
X172175518Y-115215812D01*
X172300000Y-115228072D01*
X172700000Y-115228072D01*
X172824482Y-115215812D01*
X172944180Y-115179502D01*
X173000000Y-115149665D01*
X173055820Y-115179502D01*
X173175518Y-115215812D01*
X173300000Y-115228072D01*
X173700000Y-115228072D01*
X173824482Y-115215812D01*
X173944180Y-115179502D01*
X174000000Y-115149665D01*
X174055820Y-115179502D01*
X174175518Y-115215812D01*
X174300000Y-115228072D01*
X174700000Y-115228072D01*
X174824482Y-115215812D01*
X174944180Y-115179502D01*
X175000000Y-115149665D01*
X175055820Y-115179502D01*
X175175518Y-115215812D01*
X175300000Y-115228072D01*
X175700000Y-115228072D01*
X175824482Y-115215812D01*
X175944180Y-115179502D01*
X176000000Y-115149665D01*
X176055820Y-115179502D01*
X176175518Y-115215812D01*
X176300000Y-115228072D01*
X176700000Y-115228072D01*
X176824482Y-115215812D01*
X176944180Y-115179502D01*
X177000000Y-115149665D01*
X177055820Y-115179502D01*
X177175518Y-115215812D01*
X177300000Y-115228072D01*
X177700000Y-115228072D01*
X177824482Y-115215812D01*
X177944180Y-115179502D01*
X178000000Y-115149665D01*
X178055820Y-115179502D01*
X178175518Y-115215812D01*
X178300000Y-115228072D01*
X178700000Y-115228072D01*
X178824482Y-115215812D01*
X178944180Y-115179502D01*
X179000000Y-115149665D01*
X179055820Y-115179502D01*
X179175518Y-115215812D01*
X179300000Y-115228072D01*
X179700000Y-115228072D01*
X179824482Y-115215812D01*
X179944180Y-115179502D01*
X180000000Y-115149665D01*
X180055820Y-115179502D01*
X180175518Y-115215812D01*
X180300000Y-115228072D01*
X180700000Y-115228072D01*
X180824482Y-115215812D01*
X180944180Y-115179502D01*
X181000000Y-115149665D01*
X181055820Y-115179502D01*
X181175518Y-115215812D01*
X181300000Y-115228072D01*
X181700000Y-115228072D01*
X181824482Y-115215812D01*
X181944180Y-115179502D01*
X182000000Y-115149665D01*
X182055820Y-115179502D01*
X182175518Y-115215812D01*
X182300000Y-115228072D01*
X182700000Y-115228072D01*
X182824482Y-115215812D01*
X182944180Y-115179502D01*
X183000000Y-115149665D01*
X183055820Y-115179502D01*
X183175518Y-115215812D01*
X183300000Y-115228072D01*
X183700000Y-115228072D01*
X183824482Y-115215812D01*
X183944180Y-115179502D01*
X184000000Y-115149665D01*
X184055820Y-115179502D01*
X184175518Y-115215812D01*
X184300000Y-115228072D01*
X184700000Y-115228072D01*
X184824482Y-115215812D01*
X184944180Y-115179502D01*
X185000000Y-115149665D01*
X185055820Y-115179502D01*
X185175518Y-115215812D01*
X185300000Y-115228072D01*
X185700000Y-115228072D01*
X185824482Y-115215812D01*
X185944180Y-115179502D01*
X186000000Y-115149665D01*
X186055820Y-115179502D01*
X186175518Y-115215812D01*
X186300000Y-115228072D01*
X186700000Y-115228072D01*
X186824482Y-115215812D01*
X186944180Y-115179502D01*
X187000000Y-115149665D01*
X187055820Y-115179502D01*
X187175518Y-115215812D01*
X187300000Y-115228072D01*
X187700000Y-115228072D01*
X187824482Y-115215812D01*
X187944180Y-115179502D01*
X188000000Y-115149665D01*
X188055820Y-115179502D01*
X188175518Y-115215812D01*
X188300000Y-115228072D01*
X188700000Y-115228072D01*
X188824482Y-115215812D01*
X188944180Y-115179502D01*
X189054494Y-115120537D01*
X189151185Y-115041185D01*
X189230537Y-114944494D01*
X189289502Y-114834180D01*
X189325812Y-114714482D01*
X189338072Y-114590000D01*
X189338072Y-113590000D01*
X189325812Y-113465518D01*
X189307352Y-113404663D01*
X189417205Y-113240256D01*
X189495226Y-113051898D01*
X189535000Y-112851939D01*
X189535000Y-112648061D01*
X189495226Y-112448102D01*
X189417205Y-112259744D01*
X189303937Y-112090226D01*
X189159774Y-111946063D01*
X188990256Y-111832795D01*
X188801898Y-111754774D01*
X188601939Y-111715000D01*
X188398061Y-111715000D01*
X188198102Y-111754774D01*
X188009744Y-111832795D01*
X188000000Y-111839306D01*
X187990256Y-111832795D01*
X187801898Y-111754774D01*
X187601939Y-111715000D01*
X187398061Y-111715000D01*
X187198102Y-111754774D01*
X187009744Y-111832795D01*
X187000000Y-111839306D01*
X186990256Y-111832795D01*
X186801898Y-111754774D01*
X186601939Y-111715000D01*
X186398061Y-111715000D01*
X186198102Y-111754774D01*
X186009744Y-111832795D01*
X185960000Y-111866033D01*
X185960000Y-109814344D01*
X191115000Y-109814344D01*
X191115000Y-110185656D01*
X191187439Y-110549834D01*
X191329534Y-110892882D01*
X191535825Y-111201618D01*
X191798382Y-111464175D01*
X192107118Y-111670466D01*
X192450166Y-111812561D01*
X192814344Y-111885000D01*
X193185656Y-111885000D01*
X193549834Y-111812561D01*
X193892882Y-111670466D01*
X194201618Y-111464175D01*
X194464175Y-111201618D01*
X194670466Y-110892882D01*
X194812561Y-110549834D01*
X194885000Y-110185656D01*
X194885000Y-109814344D01*
X194812561Y-109450166D01*
X194670466Y-109107118D01*
X194464175Y-108798382D01*
X194201618Y-108535825D01*
X193892882Y-108329534D01*
X193549834Y-108187439D01*
X193185656Y-108115000D01*
X192814344Y-108115000D01*
X192450166Y-108187439D01*
X192107118Y-108329534D01*
X191798382Y-108535825D01*
X191535825Y-108798382D01*
X191329534Y-109107118D01*
X191187439Y-109450166D01*
X191115000Y-109814344D01*
X185960000Y-109814344D01*
X185960000Y-108007069D01*
X185993425Y-108057093D01*
X186442907Y-108506575D01*
X186971442Y-108859730D01*
X187558719Y-109102988D01*
X188182168Y-109227000D01*
X188817832Y-109227000D01*
X189441281Y-109102988D01*
X190028558Y-108859730D01*
X190557093Y-108506575D01*
X191006575Y-108057093D01*
X191359730Y-107528558D01*
X191602988Y-106941281D01*
X191727000Y-106317832D01*
X191727000Y-105682168D01*
X191602988Y-105058719D01*
X191359730Y-104471442D01*
X191006575Y-103942907D01*
X190598667Y-103534999D01*
X190997679Y-103534999D01*
X191035001Y-103538675D01*
X191072323Y-103534999D01*
X191072334Y-103534999D01*
X191183987Y-103524002D01*
X191327248Y-103480545D01*
X191459277Y-103409973D01*
X191575002Y-103315000D01*
X191598805Y-103285996D01*
X193421004Y-101463798D01*
X193450001Y-101440001D01*
X193483648Y-101399002D01*
X193544974Y-101324277D01*
X193615546Y-101192247D01*
X193619943Y-101177753D01*
X193620624Y-101175506D01*
X193711185Y-101101185D01*
X193790537Y-101004494D01*
X193849502Y-100894180D01*
X193885812Y-100774482D01*
X193898072Y-100650000D01*
X194461928Y-100650000D01*
X194474188Y-100774482D01*
X194510498Y-100894180D01*
X194569463Y-101004494D01*
X194648815Y-101101185D01*
X194745506Y-101180537D01*
X194855820Y-101239502D01*
X194975518Y-101275812D01*
X195100000Y-101288072D01*
X195164250Y-101285000D01*
X195323000Y-101126250D01*
X195323000Y-99877000D01*
X195577000Y-99877000D01*
X195577000Y-101126250D01*
X195735750Y-101285000D01*
X195800000Y-101288072D01*
X195924482Y-101275812D01*
X196044180Y-101239502D01*
X196085000Y-101217683D01*
X196125820Y-101239502D01*
X196245518Y-101275812D01*
X196370000Y-101288072D01*
X196434250Y-101285000D01*
X196593000Y-101126250D01*
X196593000Y-99877000D01*
X195577000Y-99877000D01*
X195323000Y-99877000D01*
X194623750Y-99877000D01*
X194465000Y-100035750D01*
X194461928Y-100650000D01*
X193898072Y-100650000D01*
X193898072Y-98850000D01*
X194461928Y-98850000D01*
X194465000Y-99464250D01*
X194623750Y-99623000D01*
X195323000Y-99623000D01*
X195323000Y-98373750D01*
X195577000Y-98373750D01*
X195577000Y-99623000D01*
X196593000Y-99623000D01*
X196593000Y-98373750D01*
X196434250Y-98215000D01*
X196370000Y-98211928D01*
X196245518Y-98224188D01*
X196125820Y-98260498D01*
X196085000Y-98282317D01*
X196044180Y-98260498D01*
X195924482Y-98224188D01*
X195800000Y-98211928D01*
X195735750Y-98215000D01*
X195577000Y-98373750D01*
X195323000Y-98373750D01*
X195164250Y-98215000D01*
X195100000Y-98211928D01*
X194975518Y-98224188D01*
X194855820Y-98260498D01*
X194745506Y-98319463D01*
X194648815Y-98398815D01*
X194569463Y-98495506D01*
X194510498Y-98605820D01*
X194474188Y-98725518D01*
X194461928Y-98850000D01*
X193898072Y-98850000D01*
X193885812Y-98725518D01*
X193849502Y-98605820D01*
X193790537Y-98495506D01*
X193711185Y-98398815D01*
X193614494Y-98319463D01*
X193504180Y-98260498D01*
X193384482Y-98224188D01*
X193260000Y-98211928D01*
X192560000Y-98211928D01*
X192435518Y-98224188D01*
X192315820Y-98260498D01*
X192275000Y-98282317D01*
X192234180Y-98260498D01*
X192114482Y-98224188D01*
X191990000Y-98211928D01*
X191290000Y-98211928D01*
X191165518Y-98224188D01*
X191045820Y-98260498D01*
X191005000Y-98282317D01*
X190964180Y-98260498D01*
X190844482Y-98224188D01*
X190720000Y-98211928D01*
X190020000Y-98211928D01*
X189895518Y-98224188D01*
X189779664Y-98259332D01*
X189734974Y-98175723D01*
X189663799Y-98088997D01*
X189663798Y-98088996D01*
X189640001Y-98059999D01*
X189611003Y-98036201D01*
X185163804Y-93589003D01*
X185140001Y-93559999D01*
X185024276Y-93465026D01*
X184892247Y-93394454D01*
X184748986Y-93350997D01*
X184637333Y-93340000D01*
X184637322Y-93340000D01*
X184600000Y-93336324D01*
X184562678Y-93340000D01*
X178303711Y-93340000D01*
X178259774Y-93296063D01*
X178090256Y-93182795D01*
X177901898Y-93104774D01*
X177701939Y-93065000D01*
X177498061Y-93065000D01*
X177298102Y-93104774D01*
X177109744Y-93182795D01*
X176940226Y-93296063D01*
X176796063Y-93440226D01*
X176682795Y-93609744D01*
X176604774Y-93798102D01*
X176565000Y-93998061D01*
X176565000Y-94201939D01*
X176604774Y-94401898D01*
X176682795Y-94590256D01*
X176689306Y-94600000D01*
X176682795Y-94609744D01*
X176604774Y-94798102D01*
X176565000Y-94998061D01*
X176565000Y-95201939D01*
X176604774Y-95401898D01*
X176682795Y-95590256D01*
X176689306Y-95600000D01*
X176682795Y-95609744D01*
X176604774Y-95798102D01*
X176565000Y-95998061D01*
X176565000Y-96201939D01*
X176604774Y-96401898D01*
X176682795Y-96590256D01*
X176796063Y-96759774D01*
X176940226Y-96903937D01*
X177109744Y-97017205D01*
X177298102Y-97095226D01*
X177498061Y-97135000D01*
X177701939Y-97135000D01*
X177901898Y-97095226D01*
X178090256Y-97017205D01*
X178259774Y-96903937D01*
X178303711Y-96860000D01*
X183745199Y-96860000D01*
X185097126Y-98211928D01*
X184940000Y-98211928D01*
X184815518Y-98224188D01*
X184695820Y-98260498D01*
X184655000Y-98282317D01*
X184614180Y-98260498D01*
X184494482Y-98224188D01*
X184370000Y-98211928D01*
X183670000Y-98211928D01*
X183545518Y-98224188D01*
X183425820Y-98260498D01*
X183385000Y-98282317D01*
X183344180Y-98260498D01*
X183224482Y-98224188D01*
X183100000Y-98211928D01*
X182400000Y-98211928D01*
X182275518Y-98224188D01*
X182155820Y-98260498D01*
X182115000Y-98282317D01*
X182074180Y-98260498D01*
X181954482Y-98224188D01*
X181830000Y-98211928D01*
X181130000Y-98211928D01*
X181005518Y-98224188D01*
X180885820Y-98260498D01*
X180845000Y-98282317D01*
X180804180Y-98260498D01*
X180684482Y-98224188D01*
X180560000Y-98211928D01*
X179860000Y-98211928D01*
X179735518Y-98224188D01*
X179615820Y-98260498D01*
X179575000Y-98282317D01*
X179534180Y-98260498D01*
X179414482Y-98224188D01*
X179290000Y-98211928D01*
X178590000Y-98211928D01*
X178465518Y-98224188D01*
X178345820Y-98260498D01*
X178305000Y-98282317D01*
X178264180Y-98260498D01*
X178144482Y-98224188D01*
X178020000Y-98211928D01*
X177320000Y-98211928D01*
X177195518Y-98224188D01*
X177075820Y-98260498D01*
X177035000Y-98282317D01*
X176994180Y-98260498D01*
X176874482Y-98224188D01*
X176750000Y-98211928D01*
X176188072Y-98211928D01*
X176188072Y-97635000D01*
X176175812Y-97510518D01*
X176139502Y-97390820D01*
X176117683Y-97350000D01*
X176139502Y-97309180D01*
X176175812Y-97189482D01*
X176188072Y-97065000D01*
X176188072Y-96365000D01*
X176175812Y-96240518D01*
X176139502Y-96120820D01*
X176117683Y-96080000D01*
X176139502Y-96039180D01*
X176175812Y-95919482D01*
X176188072Y-95795000D01*
X176188072Y-95095000D01*
X176175812Y-94970518D01*
X176139502Y-94850820D01*
X176117683Y-94810000D01*
X176139502Y-94769180D01*
X176175812Y-94649482D01*
X176188072Y-94525000D01*
X176188072Y-93825000D01*
X176175812Y-93700518D01*
X176139502Y-93580820D01*
X176117683Y-93540000D01*
X176139502Y-93499180D01*
X176175812Y-93379482D01*
X176188072Y-93255000D01*
X176188072Y-92555000D01*
X176175812Y-92430518D01*
X176139502Y-92310820D01*
X176117683Y-92270000D01*
X176139502Y-92229180D01*
X176175812Y-92109482D01*
X176188072Y-91985000D01*
X176188072Y-91285000D01*
X176175812Y-91160518D01*
X176139502Y-91040820D01*
X176117683Y-91000000D01*
X176139502Y-90959180D01*
X176175812Y-90839482D01*
X176188072Y-90715000D01*
X176188072Y-90015000D01*
X176175812Y-89890518D01*
X176139502Y-89770820D01*
X176117683Y-89730000D01*
X176139502Y-89689180D01*
X176175812Y-89569482D01*
X176188072Y-89445000D01*
X176188072Y-88745000D01*
X176175812Y-88620518D01*
X176139502Y-88500820D01*
X176117683Y-88460000D01*
X176139502Y-88419180D01*
X176175812Y-88299482D01*
X176188072Y-88175000D01*
X176188072Y-87475000D01*
X176175812Y-87350518D01*
X176139502Y-87230820D01*
X176117683Y-87190000D01*
X176139502Y-87149180D01*
X176175812Y-87029482D01*
X176188072Y-86905000D01*
X176188072Y-86205000D01*
X176175812Y-86080518D01*
X176139502Y-85960820D01*
X176117683Y-85920000D01*
X176139502Y-85879180D01*
X176175812Y-85759482D01*
X176188072Y-85635000D01*
X176188072Y-84935000D01*
X176175812Y-84810518D01*
X176139502Y-84690820D01*
X176117683Y-84650000D01*
X176139502Y-84609180D01*
X176175812Y-84489482D01*
X176188072Y-84365000D01*
X176188072Y-83711178D01*
X176273000Y-83626250D01*
X176273000Y-82377000D01*
X175573750Y-82377000D01*
X175415000Y-82535750D01*
X175412544Y-83026928D01*
X173750000Y-83026928D01*
X173625518Y-83039188D01*
X173505820Y-83075498D01*
X173403856Y-83130000D01*
X172183313Y-83130000D01*
X172255537Y-83041994D01*
X172314502Y-82931680D01*
X172350812Y-82811982D01*
X172363072Y-82687500D01*
X172360000Y-82385750D01*
X172201250Y-82227000D01*
X171127000Y-82227000D01*
X171127000Y-82247000D01*
X170873000Y-82247000D01*
X170873000Y-82227000D01*
X170853000Y-82227000D01*
X170853000Y-81973000D01*
X170873000Y-81973000D01*
X170873000Y-81036250D01*
X171127000Y-81036250D01*
X171127000Y-81973000D01*
X172201250Y-81973000D01*
X172360000Y-81814250D01*
X172363072Y-81512500D01*
X172350812Y-81388018D01*
X172339280Y-81350000D01*
X175411928Y-81350000D01*
X175415000Y-81964250D01*
X175573750Y-82123000D01*
X176273000Y-82123000D01*
X176273000Y-80873750D01*
X176527000Y-80873750D01*
X176527000Y-82123000D01*
X176547000Y-82123000D01*
X176547000Y-82377000D01*
X176527000Y-82377000D01*
X176527000Y-83626250D01*
X176685750Y-83785000D01*
X176750000Y-83788072D01*
X176874482Y-83775812D01*
X176994180Y-83739502D01*
X177035000Y-83717683D01*
X177075820Y-83739502D01*
X177195518Y-83775812D01*
X177320000Y-83788072D01*
X178020000Y-83788072D01*
X178144482Y-83775812D01*
X178264180Y-83739502D01*
X178305000Y-83717683D01*
X178345820Y-83739502D01*
X178465518Y-83775812D01*
X178590000Y-83788072D01*
X179290000Y-83788072D01*
X179414482Y-83775812D01*
X179534180Y-83739502D01*
X179575000Y-83717683D01*
X179615820Y-83739502D01*
X179735518Y-83775812D01*
X179860000Y-83788072D01*
X180508929Y-83788072D01*
X180504774Y-83798102D01*
X180465000Y-83998061D01*
X180465000Y-84201939D01*
X180504774Y-84401898D01*
X180582795Y-84590256D01*
X180696063Y-84759774D01*
X180840226Y-84903937D01*
X181009744Y-85017205D01*
X181198102Y-85095226D01*
X181398061Y-85135000D01*
X181601939Y-85135000D01*
X181801898Y-85095226D01*
X181990256Y-85017205D01*
X182100000Y-84943877D01*
X182209744Y-85017205D01*
X182398102Y-85095226D01*
X182598061Y-85135000D01*
X182801939Y-85135000D01*
X183001898Y-85095226D01*
X183190256Y-85017205D01*
X183350000Y-84910468D01*
X183509744Y-85017205D01*
X183698102Y-85095226D01*
X183898061Y-85135000D01*
X184101939Y-85135000D01*
X184301898Y-85095226D01*
X184490256Y-85017205D01*
X184650000Y-84910468D01*
X184809744Y-85017205D01*
X184998102Y-85095226D01*
X185198061Y-85135000D01*
X185401939Y-85135000D01*
X185601898Y-85095226D01*
X185790256Y-85017205D01*
X185900000Y-84943877D01*
X186009744Y-85017205D01*
X186198102Y-85095226D01*
X186398061Y-85135000D01*
X186601939Y-85135000D01*
X186801898Y-85095226D01*
X186990256Y-85017205D01*
X187150000Y-84910468D01*
X187309744Y-85017205D01*
X187498102Y-85095226D01*
X187698061Y-85135000D01*
X187901939Y-85135000D01*
X188101898Y-85095226D01*
X188290256Y-85017205D01*
X188450000Y-84910468D01*
X188609744Y-85017205D01*
X188798102Y-85095226D01*
X188998061Y-85135000D01*
X189201939Y-85135000D01*
X189401898Y-85095226D01*
X189590256Y-85017205D01*
X189759774Y-84903937D01*
X189903937Y-84759774D01*
X190017205Y-84590256D01*
X190095226Y-84401898D01*
X190135000Y-84201939D01*
X190135000Y-83998061D01*
X190095226Y-83798102D01*
X190091071Y-83788072D01*
X190720000Y-83788072D01*
X190844482Y-83775812D01*
X190964180Y-83739502D01*
X191005000Y-83717683D01*
X191045820Y-83739502D01*
X191165518Y-83775812D01*
X191290000Y-83788072D01*
X191990000Y-83788072D01*
X192114482Y-83775812D01*
X192234180Y-83739502D01*
X192275000Y-83717683D01*
X192315820Y-83739502D01*
X192435518Y-83775812D01*
X192560000Y-83788072D01*
X192624250Y-83785000D01*
X192783000Y-83626250D01*
X192783000Y-82377000D01*
X193037000Y-82377000D01*
X193037000Y-83626250D01*
X193195750Y-83785000D01*
X193260000Y-83788072D01*
X193384482Y-83775812D01*
X193504180Y-83739502D01*
X193614494Y-83680537D01*
X193711185Y-83601185D01*
X193790537Y-83504494D01*
X193849502Y-83394180D01*
X193885812Y-83274482D01*
X193898072Y-83150000D01*
X194461928Y-83150000D01*
X194474188Y-83274482D01*
X194510498Y-83394180D01*
X194569463Y-83504494D01*
X194648815Y-83601185D01*
X194745506Y-83680537D01*
X194855820Y-83739502D01*
X194975518Y-83775812D01*
X195100000Y-83788072D01*
X195164250Y-83785000D01*
X195323000Y-83626250D01*
X195323000Y-82377000D01*
X195577000Y-82377000D01*
X195577000Y-83626250D01*
X195735750Y-83785000D01*
X195800000Y-83788072D01*
X195924482Y-83775812D01*
X196044180Y-83739502D01*
X196085000Y-83717683D01*
X196125820Y-83739502D01*
X196245518Y-83775812D01*
X196370000Y-83788072D01*
X196434250Y-83785000D01*
X196593000Y-83626250D01*
X196593000Y-82377000D01*
X195577000Y-82377000D01*
X195323000Y-82377000D01*
X194623750Y-82377000D01*
X194465000Y-82535750D01*
X194461928Y-83150000D01*
X193898072Y-83150000D01*
X193895000Y-82535750D01*
X193736250Y-82377000D01*
X193037000Y-82377000D01*
X192783000Y-82377000D01*
X192763000Y-82377000D01*
X192763000Y-82123000D01*
X192783000Y-82123000D01*
X192783000Y-80873750D01*
X193037000Y-80873750D01*
X193037000Y-82123000D01*
X193736250Y-82123000D01*
X193895000Y-81964250D01*
X193898072Y-81350000D01*
X194461928Y-81350000D01*
X194465000Y-81964250D01*
X194623750Y-82123000D01*
X195323000Y-82123000D01*
X195323000Y-80873750D01*
X195577000Y-80873750D01*
X195577000Y-82123000D01*
X196593000Y-82123000D01*
X196593000Y-80873750D01*
X196434250Y-80715000D01*
X196370000Y-80711928D01*
X196245518Y-80724188D01*
X196125820Y-80760498D01*
X196085000Y-80782317D01*
X196044180Y-80760498D01*
X195924482Y-80724188D01*
X195800000Y-80711928D01*
X195735750Y-80715000D01*
X195577000Y-80873750D01*
X195323000Y-80873750D01*
X195164250Y-80715000D01*
X195100000Y-80711928D01*
X194975518Y-80724188D01*
X194855820Y-80760498D01*
X194745506Y-80819463D01*
X194648815Y-80898815D01*
X194569463Y-80995506D01*
X194510498Y-81105820D01*
X194474188Y-81225518D01*
X194461928Y-81350000D01*
X193898072Y-81350000D01*
X193885812Y-81225518D01*
X193849502Y-81105820D01*
X193790537Y-80995506D01*
X193711185Y-80898815D01*
X193614494Y-80819463D01*
X193504180Y-80760498D01*
X193384482Y-80724188D01*
X193260000Y-80711928D01*
X193195750Y-80715000D01*
X193037000Y-80873750D01*
X192783000Y-80873750D01*
X192624250Y-80715000D01*
X192560000Y-80711928D01*
X192435518Y-80724188D01*
X192315820Y-80760498D01*
X192275000Y-80782317D01*
X192234180Y-80760498D01*
X192114482Y-80724188D01*
X191990000Y-80711928D01*
X191290000Y-80711928D01*
X191165518Y-80724188D01*
X191045820Y-80760498D01*
X191005000Y-80782317D01*
X190964180Y-80760498D01*
X190844482Y-80724188D01*
X190720000Y-80711928D01*
X190020000Y-80711928D01*
X189895518Y-80724188D01*
X189775820Y-80760498D01*
X189735000Y-80782317D01*
X189694180Y-80760498D01*
X189574482Y-80724188D01*
X189450000Y-80711928D01*
X188750000Y-80711928D01*
X188625518Y-80724188D01*
X188505820Y-80760498D01*
X188465000Y-80782317D01*
X188424180Y-80760498D01*
X188304482Y-80724188D01*
X188180000Y-80711928D01*
X187480000Y-80711928D01*
X187355518Y-80724188D01*
X187235820Y-80760498D01*
X187195000Y-80782317D01*
X187154180Y-80760498D01*
X187034482Y-80724188D01*
X186910000Y-80711928D01*
X186210000Y-80711928D01*
X186085518Y-80724188D01*
X185965820Y-80760498D01*
X185925000Y-80782317D01*
X185884180Y-80760498D01*
X185764482Y-80724188D01*
X185640000Y-80711928D01*
X184940000Y-80711928D01*
X184815518Y-80724188D01*
X184695820Y-80760498D01*
X184655000Y-80782317D01*
X184614180Y-80760498D01*
X184494482Y-80724188D01*
X184370000Y-80711928D01*
X183670000Y-80711928D01*
X183545518Y-80724188D01*
X183425820Y-80760498D01*
X183385000Y-80782317D01*
X183344180Y-80760498D01*
X183224482Y-80724188D01*
X183100000Y-80711928D01*
X182400000Y-80711928D01*
X182275518Y-80724188D01*
X182155820Y-80760498D01*
X182115000Y-80782317D01*
X182074180Y-80760498D01*
X181954482Y-80724188D01*
X181830000Y-80711928D01*
X181130000Y-80711928D01*
X181005518Y-80724188D01*
X180885820Y-80760498D01*
X180845000Y-80782317D01*
X180804180Y-80760498D01*
X180684482Y-80724188D01*
X180560000Y-80711928D01*
X179860000Y-80711928D01*
X179735518Y-80724188D01*
X179615820Y-80760498D01*
X179575000Y-80782317D01*
X179534180Y-80760498D01*
X179414482Y-80724188D01*
X179290000Y-80711928D01*
X178590000Y-80711928D01*
X178465518Y-80724188D01*
X178345820Y-80760498D01*
X178305000Y-80782317D01*
X178264180Y-80760498D01*
X178144482Y-80724188D01*
X178020000Y-80711928D01*
X177320000Y-80711928D01*
X177195518Y-80724188D01*
X177075820Y-80760498D01*
X177035000Y-80782317D01*
X176994180Y-80760498D01*
X176874482Y-80724188D01*
X176750000Y-80711928D01*
X176685750Y-80715000D01*
X176527000Y-80873750D01*
X176273000Y-80873750D01*
X176114250Y-80715000D01*
X176050000Y-80711928D01*
X175925518Y-80724188D01*
X175805820Y-80760498D01*
X175695506Y-80819463D01*
X175598815Y-80898815D01*
X175519463Y-80995506D01*
X175460498Y-81105820D01*
X175424188Y-81225518D01*
X175411928Y-81350000D01*
X172339280Y-81350000D01*
X172314502Y-81268320D01*
X172255537Y-81158006D01*
X172176185Y-81061315D01*
X172079494Y-80981963D01*
X171969180Y-80922998D01*
X171849482Y-80886688D01*
X171725000Y-80874428D01*
X171285750Y-80877500D01*
X171127000Y-81036250D01*
X170873000Y-81036250D01*
X170714250Y-80877500D01*
X170275000Y-80874428D01*
X170150518Y-80886688D01*
X170030820Y-80922998D01*
X169920506Y-80981963D01*
X169823815Y-81061315D01*
X169809699Y-81078516D01*
X169743387Y-81024095D01*
X169589851Y-80942028D01*
X169423255Y-80891492D01*
X169250001Y-80874428D01*
X168349999Y-80874428D01*
X168176745Y-80891492D01*
X168010149Y-80942028D01*
X167856613Y-81024095D01*
X167722038Y-81134538D01*
X167648541Y-81224094D01*
X167601898Y-81204774D01*
X167401939Y-81165000D01*
X167198061Y-81165000D01*
X166998102Y-81204774D01*
X166809744Y-81282795D01*
X166640226Y-81396063D01*
X166496063Y-81540226D01*
X166382795Y-81709744D01*
X166304774Y-81898102D01*
X166265000Y-82098061D01*
X166265000Y-82301939D01*
X166304774Y-82501898D01*
X166382795Y-82690256D01*
X166496063Y-82859774D01*
X166640226Y-83003937D01*
X166809744Y-83117205D01*
X166998102Y-83195226D01*
X167198061Y-83235000D01*
X167401939Y-83235000D01*
X167601898Y-83195226D01*
X167708456Y-83151088D01*
X167611595Y-83269113D01*
X167529528Y-83422649D01*
X167478992Y-83589245D01*
X167461928Y-83762499D01*
X167461928Y-84111493D01*
X164487955Y-87085467D01*
X164474900Y-87078489D01*
X164242101Y-87007870D01*
X164000000Y-86984025D01*
X163757898Y-87007870D01*
X163525099Y-87078489D01*
X163310551Y-87193167D01*
X163252089Y-87241146D01*
X163080533Y-87127579D01*
X162855282Y-87035409D01*
X162817609Y-87031538D01*
X162627000Y-87156269D01*
X162627000Y-88373000D01*
X162647000Y-88373000D01*
X162647000Y-88627000D01*
X162627000Y-88627000D01*
X162627000Y-88647000D01*
X162373000Y-88647000D01*
X162373000Y-88627000D01*
X161265000Y-88627000D01*
X161265000Y-88902000D01*
X161313507Y-89140496D01*
X161407610Y-89364946D01*
X161543693Y-89566725D01*
X161716526Y-89738078D01*
X161919467Y-89872421D01*
X162144718Y-89964591D01*
X162182391Y-89968462D01*
X162372998Y-89843732D01*
X162372998Y-90000424D01*
X162258422Y-90115000D01*
X158057892Y-90115000D01*
X158060000Y-90104401D01*
X158060000Y-89895599D01*
X158019265Y-89690809D01*
X157940229Y-89500000D01*
X158019265Y-89309191D01*
X158060000Y-89104401D01*
X158060000Y-88895599D01*
X158019265Y-88690809D01*
X157940229Y-88500000D01*
X158019265Y-88309191D01*
X158060000Y-88104401D01*
X158060000Y-88098000D01*
X161265000Y-88098000D01*
X161265000Y-88373000D01*
X162373000Y-88373000D01*
X162373000Y-87156269D01*
X162182391Y-87031538D01*
X162144718Y-87035409D01*
X161919467Y-87127579D01*
X161716526Y-87261922D01*
X161543693Y-87433275D01*
X161407610Y-87635054D01*
X161313507Y-87859504D01*
X161265000Y-88098000D01*
X158060000Y-88098000D01*
X158060000Y-87895599D01*
X158019265Y-87690809D01*
X157939360Y-87497902D01*
X157936006Y-87492882D01*
X158008872Y-87325250D01*
X158019540Y-87290062D01*
X157892257Y-87127000D01*
X157601413Y-87127000D01*
X157502098Y-87060640D01*
X157492031Y-87056470D01*
X157549482Y-87050812D01*
X157669180Y-87014502D01*
X157779494Y-86955537D01*
X157876185Y-86876185D01*
X157878799Y-86873000D01*
X157892257Y-86873000D01*
X158019540Y-86709938D01*
X158009832Y-86677917D01*
X158014502Y-86669180D01*
X158050812Y-86549482D01*
X158063072Y-86425000D01*
X158060000Y-86285750D01*
X157901250Y-86127000D01*
X157592768Y-86127000D01*
X157483394Y-86056632D01*
X157290064Y-85980453D01*
X157127000Y-86106379D01*
X157127000Y-86147000D01*
X156873000Y-86147000D01*
X156873000Y-86106379D01*
X156709936Y-85980453D01*
X156516606Y-86056632D01*
X156407232Y-86127000D01*
X156098750Y-86127000D01*
X155940000Y-86285750D01*
X155936928Y-86425000D01*
X152975081Y-86425000D01*
X152974091Y-86424181D01*
X152747227Y-86239155D01*
X152697408Y-86206055D01*
X152648045Y-86172256D01*
X152639939Y-86167873D01*
X152381458Y-86030436D01*
X152326164Y-86007645D01*
X152271171Y-85984075D01*
X152262368Y-85981350D01*
X151982114Y-85896736D01*
X151923429Y-85885116D01*
X151864921Y-85872680D01*
X151855758Y-85871717D01*
X151855756Y-85871717D01*
X151564404Y-85843150D01*
X151564402Y-85843150D01*
X151532419Y-85840000D01*
X150660000Y-85840000D01*
X150660000Y-85575000D01*
X155936928Y-85575000D01*
X155940000Y-85714250D01*
X156098750Y-85873000D01*
X156873000Y-85873000D01*
X156873000Y-85098750D01*
X157127000Y-85098750D01*
X157127000Y-85873000D01*
X157901250Y-85873000D01*
X158060000Y-85714250D01*
X158063072Y-85575000D01*
X158050812Y-85450518D01*
X158014502Y-85330820D01*
X157955537Y-85220506D01*
X157876185Y-85123815D01*
X157779494Y-85044463D01*
X157669180Y-84985498D01*
X157549482Y-84949188D01*
X157425000Y-84936928D01*
X157285750Y-84940000D01*
X157127000Y-85098750D01*
X156873000Y-85098750D01*
X156714250Y-84940000D01*
X156575000Y-84936928D01*
X156450518Y-84949188D01*
X156330820Y-84985498D01*
X156220506Y-85044463D01*
X156123815Y-85123815D01*
X156044463Y-85220506D01*
X155985498Y-85330820D01*
X155949188Y-85450518D01*
X155936928Y-85575000D01*
X150660000Y-85575000D01*
X150660000Y-80660000D01*
X196840000Y-80660000D01*
X196840001Y-99967572D01*
G04 #@! TA.AperFunction,Conductor*
D21*
G36*
X196840001Y-99967572D02*
G01*
X196840000Y-99967582D01*
X196840001Y-114226618D01*
X192938072Y-118128548D01*
X192938072Y-115290000D01*
X192925812Y-115165518D01*
X192889502Y-115045820D01*
X192830537Y-114935506D01*
X192751185Y-114838815D01*
X192654494Y-114759463D01*
X192544180Y-114700498D01*
X192424482Y-114664188D01*
X192300000Y-114651928D01*
X190300000Y-114651928D01*
X190175518Y-114664188D01*
X190055820Y-114700498D01*
X189945506Y-114759463D01*
X189848815Y-114838815D01*
X189769463Y-114935506D01*
X189710498Y-115045820D01*
X189674188Y-115165518D01*
X189661928Y-115290000D01*
X189661928Y-118290000D01*
X189674188Y-118414482D01*
X189710498Y-118534180D01*
X189769463Y-118644494D01*
X189848815Y-118741185D01*
X189945506Y-118820537D01*
X190055820Y-118879502D01*
X190175518Y-118915812D01*
X190300000Y-118928072D01*
X192138548Y-118928072D01*
X191726620Y-119340000D01*
X150660000Y-119340000D01*
X150660000Y-115290000D01*
X155061928Y-115290000D01*
X155061928Y-118290000D01*
X155074188Y-118414482D01*
X155110498Y-118534180D01*
X155169463Y-118644494D01*
X155248815Y-118741185D01*
X155345506Y-118820537D01*
X155455820Y-118879502D01*
X155575518Y-118915812D01*
X155700000Y-118928072D01*
X157700000Y-118928072D01*
X157824482Y-118915812D01*
X157944180Y-118879502D01*
X158054494Y-118820537D01*
X158151185Y-118741185D01*
X158230537Y-118644494D01*
X158289502Y-118534180D01*
X158325812Y-118414482D01*
X158338072Y-118290000D01*
X158338072Y-115290000D01*
X158325812Y-115165518D01*
X158289502Y-115045820D01*
X158230537Y-114935506D01*
X158151185Y-114838815D01*
X158054494Y-114759463D01*
X157944180Y-114700498D01*
X157824482Y-114664188D01*
X157700000Y-114651928D01*
X155700000Y-114651928D01*
X155575518Y-114664188D01*
X155455820Y-114700498D01*
X155345506Y-114759463D01*
X155248815Y-114838815D01*
X155169463Y-114935506D01*
X155110498Y-115045820D01*
X155074188Y-115165518D01*
X155061928Y-115290000D01*
X150660000Y-115290000D01*
X150660000Y-114577612D01*
X158662048Y-114577612D01*
X158671889Y-114702308D01*
X158705869Y-114822688D01*
X158762680Y-114934126D01*
X158840140Y-115032340D01*
X158935272Y-115113555D01*
X159044421Y-115174650D01*
X159163391Y-115213277D01*
X159268250Y-115225000D01*
X159427000Y-115066250D01*
X159427000Y-114217000D01*
X158823750Y-114217000D01*
X158665000Y-114375750D01*
X158662048Y-114577612D01*
X150660000Y-114577612D01*
X150660000Y-113602388D01*
X158662048Y-113602388D01*
X158665000Y-113804250D01*
X158823750Y-113963000D01*
X159427000Y-113963000D01*
X159427000Y-113113750D01*
X159268250Y-112955000D01*
X159163391Y-112966723D01*
X159044421Y-113005350D01*
X158935272Y-113066445D01*
X158840140Y-113147660D01*
X158762680Y-113245874D01*
X158705869Y-113357312D01*
X158671889Y-113477692D01*
X158662048Y-113602388D01*
X150660000Y-113602388D01*
X150660000Y-108682168D01*
X152273000Y-108682168D01*
X152273000Y-109317832D01*
X152397012Y-109941281D01*
X152640270Y-110528558D01*
X152993425Y-111057093D01*
X153442907Y-111506575D01*
X153971442Y-111859730D01*
X154558719Y-112102988D01*
X155182168Y-112227000D01*
X155817832Y-112227000D01*
X156441281Y-112102988D01*
X157028558Y-111859730D01*
X157557093Y-111506575D01*
X158006575Y-111057093D01*
X158359730Y-110528558D01*
X158602988Y-109941281D01*
X158727000Y-109317832D01*
X158727000Y-108682168D01*
X158602988Y-108058719D01*
X158359730Y-107471442D01*
X158006575Y-106942907D01*
X157557093Y-106493425D01*
X157028558Y-106140270D01*
X156441281Y-105897012D01*
X155817832Y-105773000D01*
X155182168Y-105773000D01*
X154558719Y-105897012D01*
X153971442Y-106140270D01*
X153442907Y-106493425D01*
X152993425Y-106942907D01*
X152640270Y-107471442D01*
X152397012Y-108058719D01*
X152273000Y-108682168D01*
X150660000Y-108682168D01*
X150660000Y-98160000D01*
X153532419Y-98160000D01*
X153534718Y-98159774D01*
X153539519Y-98159740D01*
X153569333Y-98156606D01*
X153599309Y-98156606D01*
X153608474Y-98155643D01*
X154093348Y-98101256D01*
X154151863Y-98088818D01*
X154210540Y-98077200D01*
X154219343Y-98074475D01*
X154684419Y-97926944D01*
X154739391Y-97903383D01*
X154794706Y-97880584D01*
X154802812Y-97876201D01*
X155230374Y-97641147D01*
X155279736Y-97607348D01*
X155329558Y-97574247D01*
X155336658Y-97568373D01*
X155710423Y-97254747D01*
X155752286Y-97211997D01*
X155794721Y-97169858D01*
X155800545Y-97162717D01*
X156106274Y-96782467D01*
X156139034Y-96732404D01*
X156172479Y-96682820D01*
X156176805Y-96674683D01*
X156402854Y-96242291D01*
X156425250Y-96186859D01*
X156448444Y-96131683D01*
X156451107Y-96122861D01*
X156588865Y-95654798D01*
X156600066Y-95596079D01*
X156612103Y-95537442D01*
X156613002Y-95528271D01*
X156657223Y-95042365D01*
X156656805Y-94982547D01*
X156657223Y-94922730D01*
X156656323Y-94913558D01*
X156605322Y-94428316D01*
X156593302Y-94369760D01*
X156582086Y-94310959D01*
X156579422Y-94302138D01*
X156435142Y-93836044D01*
X156411954Y-93780881D01*
X156389552Y-93725435D01*
X156385226Y-93717299D01*
X156153162Y-93288106D01*
X156119729Y-93238539D01*
X156086958Y-93188460D01*
X156081134Y-93181319D01*
X155770125Y-92805374D01*
X155727708Y-92763252D01*
X155685826Y-92720483D01*
X155678725Y-92714610D01*
X155300618Y-92406233D01*
X155250809Y-92373141D01*
X155201437Y-92339334D01*
X155193331Y-92334952D01*
X154762527Y-92105890D01*
X154707233Y-92083099D01*
X154652240Y-92059529D01*
X154643437Y-92056804D01*
X154176347Y-91915781D01*
X154117653Y-91904159D01*
X154059156Y-91891725D01*
X154049991Y-91890762D01*
X153564405Y-91843150D01*
X153564402Y-91843150D01*
X153532419Y-91840000D01*
X150660000Y-91840000D01*
X150660000Y-90160000D01*
X151532419Y-90160000D01*
X151565884Y-90156704D01*
X151585349Y-90156704D01*
X151594514Y-90155741D01*
X151885438Y-90123108D01*
X151943941Y-90110672D01*
X152002629Y-90099052D01*
X152011432Y-90096327D01*
X152290476Y-90007809D01*
X152345412Y-89984263D01*
X152400764Y-89961449D01*
X152408870Y-89957065D01*
X152665408Y-89816032D01*
X152714753Y-89782245D01*
X152764591Y-89749133D01*
X152771691Y-89743259D01*
X152995949Y-89555084D01*
X153037793Y-89512354D01*
X153080248Y-89470195D01*
X153086072Y-89463053D01*
X153269509Y-89234903D01*
X153302251Y-89184869D01*
X153335714Y-89135258D01*
X153340040Y-89127122D01*
X153475670Y-88867687D01*
X153498082Y-88812215D01*
X153521260Y-88757077D01*
X153523923Y-88748255D01*
X153606578Y-88467417D01*
X153617785Y-88408669D01*
X153629816Y-88350059D01*
X153630715Y-88340888D01*
X153657247Y-88049344D01*
X153656829Y-87989528D01*
X153657247Y-87929712D01*
X153656348Y-87920541D01*
X153625748Y-87629395D01*
X153613710Y-87570753D01*
X153602510Y-87512037D01*
X153599847Y-87503216D01*
X153513279Y-87223560D01*
X153490101Y-87168422D01*
X153467689Y-87112950D01*
X153463362Y-87104814D01*
X153324123Y-86847298D01*
X153290701Y-86797749D01*
X153257920Y-86747653D01*
X153252095Y-86740512D01*
X153065490Y-86514945D01*
X153023054Y-86472804D01*
X152981191Y-86430055D01*
X152975081Y-86425000D01*
X155936928Y-86425000D01*
X155949188Y-86549482D01*
X155985498Y-86669180D01*
X155990168Y-86677917D01*
X155980460Y-86709938D01*
X156107743Y-86873000D01*
X156121201Y-86873000D01*
X156123815Y-86876185D01*
X156220506Y-86955537D01*
X156330820Y-87014502D01*
X156450518Y-87050812D01*
X156507969Y-87056470D01*
X156497902Y-87060640D01*
X156398587Y-87127000D01*
X156107743Y-87127000D01*
X155980460Y-87290062D01*
X155991128Y-87325250D01*
X156063994Y-87492882D01*
X156060640Y-87497902D01*
X155980735Y-87690809D01*
X155940000Y-87895599D01*
X155940000Y-88104401D01*
X155980735Y-88309191D01*
X156059771Y-88500000D01*
X155980735Y-88690809D01*
X155940000Y-88895599D01*
X155940000Y-89104401D01*
X155980735Y-89309191D01*
X156059771Y-89500000D01*
X155980735Y-89690809D01*
X155940000Y-89895599D01*
X155940000Y-90104401D01*
X155980735Y-90309191D01*
X156059771Y-90500000D01*
X155980735Y-90690809D01*
X155940000Y-90895599D01*
X155940000Y-91104401D01*
X155980735Y-91309191D01*
X156060640Y-91502098D01*
X156176644Y-91675711D01*
X156324289Y-91823356D01*
X156497902Y-91939360D01*
X156690809Y-92019265D01*
X156895599Y-92060000D01*
X157104401Y-92060000D01*
X157309191Y-92019265D01*
X157502098Y-91939360D01*
X157583454Y-91885000D01*
X162581531Y-91885000D01*
X162625000Y-91889281D01*
X162668469Y-91885000D01*
X162668477Y-91885000D01*
X162798490Y-91872195D01*
X162965313Y-91821589D01*
X163119059Y-91739411D01*
X163253817Y-91628817D01*
X163281534Y-91595044D01*
X164595050Y-90281529D01*
X164628817Y-90253817D01*
X164659842Y-90216014D01*
X164739411Y-90119059D01*
X164821589Y-89965314D01*
X164872195Y-89798490D01*
X164877056Y-89749133D01*
X164885000Y-89668477D01*
X164885000Y-89668469D01*
X164887809Y-89639942D01*
X165031833Y-89464449D01*
X165146511Y-89249900D01*
X165217130Y-89017101D01*
X165234354Y-88842224D01*
X168726007Y-85350572D01*
X169250001Y-85350572D01*
X169423255Y-85333508D01*
X169589851Y-85282972D01*
X169743387Y-85200905D01*
X169864841Y-85101230D01*
X169897038Y-85140462D01*
X170031614Y-85250905D01*
X170185150Y-85332972D01*
X170351746Y-85383508D01*
X170525000Y-85400572D01*
X171475000Y-85400572D01*
X171648254Y-85383508D01*
X171814850Y-85332972D01*
X171968386Y-85250905D01*
X172102962Y-85140462D01*
X172213405Y-85005886D01*
X172270002Y-84900000D01*
X173025198Y-84900000D01*
X161988998Y-95936201D01*
X161960000Y-95959999D01*
X161936202Y-95988997D01*
X161936201Y-95988998D01*
X161865026Y-96075724D01*
X161794454Y-96207754D01*
X161769286Y-96290724D01*
X161750998Y-96351014D01*
X161747700Y-96384502D01*
X161736324Y-96500000D01*
X161740001Y-96537333D01*
X161740000Y-112955868D01*
X161700000Y-112951928D01*
X161300000Y-112951928D01*
X161175518Y-112964188D01*
X161055820Y-113000498D01*
X161000000Y-113030335D01*
X160944180Y-113000498D01*
X160824482Y-112964188D01*
X160700000Y-112951928D01*
X160300000Y-112951928D01*
X160175518Y-112964188D01*
X160055820Y-113000498D01*
X160000110Y-113030276D01*
X159955579Y-113005350D01*
X159836609Y-112966723D01*
X159731750Y-112955000D01*
X159573000Y-113113750D01*
X159573000Y-113963000D01*
X159647000Y-113963000D01*
X159647000Y-114217000D01*
X159573000Y-114217000D01*
X159573000Y-115066250D01*
X159731750Y-115225000D01*
X159836609Y-115213277D01*
X159955579Y-115174650D01*
X160000110Y-115149724D01*
X160055820Y-115179502D01*
X160175518Y-115215812D01*
X160300000Y-115228072D01*
X160700000Y-115228072D01*
X160824482Y-115215812D01*
X160944180Y-115179502D01*
X161000000Y-115149665D01*
X161055820Y-115179502D01*
X161175518Y-115215812D01*
X161300000Y-115228072D01*
X161700000Y-115228072D01*
X161824482Y-115215812D01*
X161944180Y-115179502D01*
X162000000Y-115149665D01*
X162055820Y-115179502D01*
X162175518Y-115215812D01*
X162300000Y-115228072D01*
X162700000Y-115228072D01*
X162824482Y-115215812D01*
X162944180Y-115179502D01*
X163000000Y-115149665D01*
X163055820Y-115179502D01*
X163175518Y-115215812D01*
X163300000Y-115228072D01*
X163700000Y-115228072D01*
X163824482Y-115215812D01*
X163944180Y-115179502D01*
X164000000Y-115149665D01*
X164055820Y-115179502D01*
X164175518Y-115215812D01*
X164300000Y-115228072D01*
X164700000Y-115228072D01*
X164824482Y-115215812D01*
X164944180Y-115179502D01*
X165000000Y-115149665D01*
X165055820Y-115179502D01*
X165175518Y-115215812D01*
X165300000Y-115228072D01*
X165700000Y-115228072D01*
X165824482Y-115215812D01*
X165944180Y-115179502D01*
X166000000Y-115149665D01*
X166055820Y-115179502D01*
X166175518Y-115215812D01*
X166300000Y-115228072D01*
X166700000Y-115228072D01*
X166824482Y-115215812D01*
X166944180Y-115179502D01*
X167000000Y-115149665D01*
X167055820Y-115179502D01*
X167175518Y-115215812D01*
X167300000Y-115228072D01*
X167700000Y-115228072D01*
X167824482Y-115215812D01*
X167944180Y-115179502D01*
X168000000Y-115149665D01*
X168055820Y-115179502D01*
X168175518Y-115215812D01*
X168300000Y-115228072D01*
X168700000Y-115228072D01*
X168824482Y-115215812D01*
X168944180Y-115179502D01*
X169000000Y-115149665D01*
X169055820Y-115179502D01*
X169175518Y-115215812D01*
X169300000Y-115228072D01*
X169700000Y-115228072D01*
X169824482Y-115215812D01*
X169944180Y-115179502D01*
X170000000Y-115149665D01*
X170055820Y-115179502D01*
X170175518Y-115215812D01*
X170300000Y-115228072D01*
X170700000Y-115228072D01*
X170824482Y-115215812D01*
X170944180Y-115179502D01*
X171000000Y-115149665D01*
X171055820Y-115179502D01*
X171175518Y-115215812D01*
X171300000Y-115228072D01*
X171700000Y-115228072D01*
X171824482Y-115215812D01*
X171944180Y-115179502D01*
X172000000Y-115149665D01*
X172055820Y-115179502D01*
X172175518Y-115215812D01*
X172300000Y-115228072D01*
X172700000Y-115228072D01*
X172824482Y-115215812D01*
X172944180Y-115179502D01*
X173000000Y-115149665D01*
X173055820Y-115179502D01*
X173175518Y-115215812D01*
X173300000Y-115228072D01*
X173700000Y-115228072D01*
X173824482Y-115215812D01*
X173944180Y-115179502D01*
X174000000Y-115149665D01*
X174055820Y-115179502D01*
X174175518Y-115215812D01*
X174300000Y-115228072D01*
X174700000Y-115228072D01*
X174824482Y-115215812D01*
X174944180Y-115179502D01*
X175000000Y-115149665D01*
X175055820Y-115179502D01*
X175175518Y-115215812D01*
X175300000Y-115228072D01*
X175700000Y-115228072D01*
X175824482Y-115215812D01*
X175944180Y-115179502D01*
X176000000Y-115149665D01*
X176055820Y-115179502D01*
X176175518Y-115215812D01*
X176300000Y-115228072D01*
X176700000Y-115228072D01*
X176824482Y-115215812D01*
X176944180Y-115179502D01*
X177000000Y-115149665D01*
X177055820Y-115179502D01*
X177175518Y-115215812D01*
X177300000Y-115228072D01*
X177700000Y-115228072D01*
X177824482Y-115215812D01*
X177944180Y-115179502D01*
X178000000Y-115149665D01*
X178055820Y-115179502D01*
X178175518Y-115215812D01*
X178300000Y-115228072D01*
X178700000Y-115228072D01*
X178824482Y-115215812D01*
X178944180Y-115179502D01*
X179000000Y-115149665D01*
X179055820Y-115179502D01*
X179175518Y-115215812D01*
X179300000Y-115228072D01*
X179700000Y-115228072D01*
X179824482Y-115215812D01*
X179944180Y-115179502D01*
X180000000Y-115149665D01*
X180055820Y-115179502D01*
X180175518Y-115215812D01*
X180300000Y-115228072D01*
X180700000Y-115228072D01*
X180824482Y-115215812D01*
X180944180Y-115179502D01*
X181000000Y-115149665D01*
X181055820Y-115179502D01*
X181175518Y-115215812D01*
X181300000Y-115228072D01*
X181700000Y-115228072D01*
X181824482Y-115215812D01*
X181944180Y-115179502D01*
X182000000Y-115149665D01*
X182055820Y-115179502D01*
X182175518Y-115215812D01*
X182300000Y-115228072D01*
X182700000Y-115228072D01*
X182824482Y-115215812D01*
X182944180Y-115179502D01*
X183000000Y-115149665D01*
X183055820Y-115179502D01*
X183175518Y-115215812D01*
X183300000Y-115228072D01*
X183700000Y-115228072D01*
X183824482Y-115215812D01*
X183944180Y-115179502D01*
X184000000Y-115149665D01*
X184055820Y-115179502D01*
X184175518Y-115215812D01*
X184300000Y-115228072D01*
X184700000Y-115228072D01*
X184824482Y-115215812D01*
X184944180Y-115179502D01*
X185000000Y-115149665D01*
X185055820Y-115179502D01*
X185175518Y-115215812D01*
X185300000Y-115228072D01*
X185700000Y-115228072D01*
X185824482Y-115215812D01*
X185944180Y-115179502D01*
X186000000Y-115149665D01*
X186055820Y-115179502D01*
X186175518Y-115215812D01*
X186300000Y-115228072D01*
X186700000Y-115228072D01*
X186824482Y-115215812D01*
X186944180Y-115179502D01*
X187000000Y-115149665D01*
X187055820Y-115179502D01*
X187175518Y-115215812D01*
X187300000Y-115228072D01*
X187700000Y-115228072D01*
X187824482Y-115215812D01*
X187944180Y-115179502D01*
X188000000Y-115149665D01*
X188055820Y-115179502D01*
X188175518Y-115215812D01*
X188300000Y-115228072D01*
X188700000Y-115228072D01*
X188824482Y-115215812D01*
X188944180Y-115179502D01*
X189054494Y-115120537D01*
X189151185Y-115041185D01*
X189230537Y-114944494D01*
X189289502Y-114834180D01*
X189325812Y-114714482D01*
X189338072Y-114590000D01*
X189338072Y-113590000D01*
X189325812Y-113465518D01*
X189307352Y-113404663D01*
X189417205Y-113240256D01*
X189495226Y-113051898D01*
X189535000Y-112851939D01*
X189535000Y-112648061D01*
X189495226Y-112448102D01*
X189417205Y-112259744D01*
X189303937Y-112090226D01*
X189159774Y-111946063D01*
X188990256Y-111832795D01*
X188801898Y-111754774D01*
X188601939Y-111715000D01*
X188398061Y-111715000D01*
X188198102Y-111754774D01*
X188009744Y-111832795D01*
X188000000Y-111839306D01*
X187990256Y-111832795D01*
X187801898Y-111754774D01*
X187601939Y-111715000D01*
X187398061Y-111715000D01*
X187198102Y-111754774D01*
X187009744Y-111832795D01*
X187000000Y-111839306D01*
X186990256Y-111832795D01*
X186801898Y-111754774D01*
X186601939Y-111715000D01*
X186398061Y-111715000D01*
X186198102Y-111754774D01*
X186009744Y-111832795D01*
X185960000Y-111866033D01*
X185960000Y-109814344D01*
X191115000Y-109814344D01*
X191115000Y-110185656D01*
X191187439Y-110549834D01*
X191329534Y-110892882D01*
X191535825Y-111201618D01*
X191798382Y-111464175D01*
X192107118Y-111670466D01*
X192450166Y-111812561D01*
X192814344Y-111885000D01*
X193185656Y-111885000D01*
X193549834Y-111812561D01*
X193892882Y-111670466D01*
X194201618Y-111464175D01*
X194464175Y-111201618D01*
X194670466Y-110892882D01*
X194812561Y-110549834D01*
X194885000Y-110185656D01*
X194885000Y-109814344D01*
X194812561Y-109450166D01*
X194670466Y-109107118D01*
X194464175Y-108798382D01*
X194201618Y-108535825D01*
X193892882Y-108329534D01*
X193549834Y-108187439D01*
X193185656Y-108115000D01*
X192814344Y-108115000D01*
X192450166Y-108187439D01*
X192107118Y-108329534D01*
X191798382Y-108535825D01*
X191535825Y-108798382D01*
X191329534Y-109107118D01*
X191187439Y-109450166D01*
X191115000Y-109814344D01*
X185960000Y-109814344D01*
X185960000Y-108007069D01*
X185993425Y-108057093D01*
X186442907Y-108506575D01*
X186971442Y-108859730D01*
X187558719Y-109102988D01*
X188182168Y-109227000D01*
X188817832Y-109227000D01*
X189441281Y-109102988D01*
X190028558Y-108859730D01*
X190557093Y-108506575D01*
X191006575Y-108057093D01*
X191359730Y-107528558D01*
X191602988Y-106941281D01*
X191727000Y-106317832D01*
X191727000Y-105682168D01*
X191602988Y-105058719D01*
X191359730Y-104471442D01*
X191006575Y-103942907D01*
X190598667Y-103534999D01*
X190997679Y-103534999D01*
X191035001Y-103538675D01*
X191072323Y-103534999D01*
X191072334Y-103534999D01*
X191183987Y-103524002D01*
X191327248Y-103480545D01*
X191459277Y-103409973D01*
X191575002Y-103315000D01*
X191598805Y-103285996D01*
X193421004Y-101463798D01*
X193450001Y-101440001D01*
X193483648Y-101399002D01*
X193544974Y-101324277D01*
X193615546Y-101192247D01*
X193619943Y-101177753D01*
X193620624Y-101175506D01*
X193711185Y-101101185D01*
X193790537Y-101004494D01*
X193849502Y-100894180D01*
X193885812Y-100774482D01*
X193898072Y-100650000D01*
X194461928Y-100650000D01*
X194474188Y-100774482D01*
X194510498Y-100894180D01*
X194569463Y-101004494D01*
X194648815Y-101101185D01*
X194745506Y-101180537D01*
X194855820Y-101239502D01*
X194975518Y-101275812D01*
X195100000Y-101288072D01*
X195164250Y-101285000D01*
X195323000Y-101126250D01*
X195323000Y-99877000D01*
X195577000Y-99877000D01*
X195577000Y-101126250D01*
X195735750Y-101285000D01*
X195800000Y-101288072D01*
X195924482Y-101275812D01*
X196044180Y-101239502D01*
X196085000Y-101217683D01*
X196125820Y-101239502D01*
X196245518Y-101275812D01*
X196370000Y-101288072D01*
X196434250Y-101285000D01*
X196593000Y-101126250D01*
X196593000Y-99877000D01*
X195577000Y-99877000D01*
X195323000Y-99877000D01*
X194623750Y-99877000D01*
X194465000Y-100035750D01*
X194461928Y-100650000D01*
X193898072Y-100650000D01*
X193898072Y-98850000D01*
X194461928Y-98850000D01*
X194465000Y-99464250D01*
X194623750Y-99623000D01*
X195323000Y-99623000D01*
X195323000Y-98373750D01*
X195577000Y-98373750D01*
X195577000Y-99623000D01*
X196593000Y-99623000D01*
X196593000Y-98373750D01*
X196434250Y-98215000D01*
X196370000Y-98211928D01*
X196245518Y-98224188D01*
X196125820Y-98260498D01*
X196085000Y-98282317D01*
X196044180Y-98260498D01*
X195924482Y-98224188D01*
X195800000Y-98211928D01*
X195735750Y-98215000D01*
X195577000Y-98373750D01*
X195323000Y-98373750D01*
X195164250Y-98215000D01*
X195100000Y-98211928D01*
X194975518Y-98224188D01*
X194855820Y-98260498D01*
X194745506Y-98319463D01*
X194648815Y-98398815D01*
X194569463Y-98495506D01*
X194510498Y-98605820D01*
X194474188Y-98725518D01*
X194461928Y-98850000D01*
X193898072Y-98850000D01*
X193885812Y-98725518D01*
X193849502Y-98605820D01*
X193790537Y-98495506D01*
X193711185Y-98398815D01*
X193614494Y-98319463D01*
X193504180Y-98260498D01*
X193384482Y-98224188D01*
X193260000Y-98211928D01*
X192560000Y-98211928D01*
X192435518Y-98224188D01*
X192315820Y-98260498D01*
X192275000Y-98282317D01*
X192234180Y-98260498D01*
X192114482Y-98224188D01*
X191990000Y-98211928D01*
X191290000Y-98211928D01*
X191165518Y-98224188D01*
X191045820Y-98260498D01*
X191005000Y-98282317D01*
X190964180Y-98260498D01*
X190844482Y-98224188D01*
X190720000Y-98211928D01*
X190020000Y-98211928D01*
X189895518Y-98224188D01*
X189779664Y-98259332D01*
X189734974Y-98175723D01*
X189663799Y-98088997D01*
X189663798Y-98088996D01*
X189640001Y-98059999D01*
X189611003Y-98036201D01*
X185163804Y-93589003D01*
X185140001Y-93559999D01*
X185024276Y-93465026D01*
X184892247Y-93394454D01*
X184748986Y-93350997D01*
X184637333Y-93340000D01*
X184637322Y-93340000D01*
X184600000Y-93336324D01*
X184562678Y-93340000D01*
X178303711Y-93340000D01*
X178259774Y-93296063D01*
X178090256Y-93182795D01*
X177901898Y-93104774D01*
X177701939Y-93065000D01*
X177498061Y-93065000D01*
X177298102Y-93104774D01*
X177109744Y-93182795D01*
X176940226Y-93296063D01*
X176796063Y-93440226D01*
X176682795Y-93609744D01*
X176604774Y-93798102D01*
X176565000Y-93998061D01*
X176565000Y-94201939D01*
X176604774Y-94401898D01*
X176682795Y-94590256D01*
X176689306Y-94600000D01*
X176682795Y-94609744D01*
X176604774Y-94798102D01*
X176565000Y-94998061D01*
X176565000Y-95201939D01*
X176604774Y-95401898D01*
X176682795Y-95590256D01*
X176689306Y-95600000D01*
X176682795Y-95609744D01*
X176604774Y-95798102D01*
X176565000Y-95998061D01*
X176565000Y-96201939D01*
X176604774Y-96401898D01*
X176682795Y-96590256D01*
X176796063Y-96759774D01*
X176940226Y-96903937D01*
X177109744Y-97017205D01*
X177298102Y-97095226D01*
X177498061Y-97135000D01*
X177701939Y-97135000D01*
X177901898Y-97095226D01*
X178090256Y-97017205D01*
X178259774Y-96903937D01*
X178303711Y-96860000D01*
X183745199Y-96860000D01*
X185097126Y-98211928D01*
X184940000Y-98211928D01*
X184815518Y-98224188D01*
X184695820Y-98260498D01*
X184655000Y-98282317D01*
X184614180Y-98260498D01*
X184494482Y-98224188D01*
X184370000Y-98211928D01*
X183670000Y-98211928D01*
X183545518Y-98224188D01*
X183425820Y-98260498D01*
X183385000Y-98282317D01*
X183344180Y-98260498D01*
X183224482Y-98224188D01*
X183100000Y-98211928D01*
X182400000Y-98211928D01*
X182275518Y-98224188D01*
X182155820Y-98260498D01*
X182115000Y-98282317D01*
X182074180Y-98260498D01*
X181954482Y-98224188D01*
X181830000Y-98211928D01*
X181130000Y-98211928D01*
X181005518Y-98224188D01*
X180885820Y-98260498D01*
X180845000Y-98282317D01*
X180804180Y-98260498D01*
X180684482Y-98224188D01*
X180560000Y-98211928D01*
X179860000Y-98211928D01*
X179735518Y-98224188D01*
X179615820Y-98260498D01*
X179575000Y-98282317D01*
X179534180Y-98260498D01*
X179414482Y-98224188D01*
X179290000Y-98211928D01*
X178590000Y-98211928D01*
X178465518Y-98224188D01*
X178345820Y-98260498D01*
X178305000Y-98282317D01*
X178264180Y-98260498D01*
X178144482Y-98224188D01*
X178020000Y-98211928D01*
X177320000Y-98211928D01*
X177195518Y-98224188D01*
X177075820Y-98260498D01*
X177035000Y-98282317D01*
X176994180Y-98260498D01*
X176874482Y-98224188D01*
X176750000Y-98211928D01*
X176188072Y-98211928D01*
X176188072Y-97635000D01*
X176175812Y-97510518D01*
X176139502Y-97390820D01*
X176117683Y-97350000D01*
X176139502Y-97309180D01*
X176175812Y-97189482D01*
X176188072Y-97065000D01*
X176188072Y-96365000D01*
X176175812Y-96240518D01*
X176139502Y-96120820D01*
X176117683Y-96080000D01*
X176139502Y-96039180D01*
X176175812Y-95919482D01*
X176188072Y-95795000D01*
X176188072Y-95095000D01*
X176175812Y-94970518D01*
X176139502Y-94850820D01*
X176117683Y-94810000D01*
X176139502Y-94769180D01*
X176175812Y-94649482D01*
X176188072Y-94525000D01*
X176188072Y-93825000D01*
X176175812Y-93700518D01*
X176139502Y-93580820D01*
X176117683Y-93540000D01*
X176139502Y-93499180D01*
X176175812Y-93379482D01*
X176188072Y-93255000D01*
X176188072Y-92555000D01*
X176175812Y-92430518D01*
X176139502Y-92310820D01*
X176117683Y-92270000D01*
X176139502Y-92229180D01*
X176175812Y-92109482D01*
X176188072Y-91985000D01*
X176188072Y-91285000D01*
X176175812Y-91160518D01*
X176139502Y-91040820D01*
X176117683Y-91000000D01*
X176139502Y-90959180D01*
X176175812Y-90839482D01*
X176188072Y-90715000D01*
X176188072Y-90015000D01*
X176175812Y-89890518D01*
X176139502Y-89770820D01*
X176117683Y-89730000D01*
X176139502Y-89689180D01*
X176175812Y-89569482D01*
X176188072Y-89445000D01*
X176188072Y-88745000D01*
X176175812Y-88620518D01*
X176139502Y-88500820D01*
X176117683Y-88460000D01*
X176139502Y-88419180D01*
X176175812Y-88299482D01*
X176188072Y-88175000D01*
X176188072Y-87475000D01*
X176175812Y-87350518D01*
X176139502Y-87230820D01*
X176117683Y-87190000D01*
X176139502Y-87149180D01*
X176175812Y-87029482D01*
X176188072Y-86905000D01*
X176188072Y-86205000D01*
X176175812Y-86080518D01*
X176139502Y-85960820D01*
X176117683Y-85920000D01*
X176139502Y-85879180D01*
X176175812Y-85759482D01*
X176188072Y-85635000D01*
X176188072Y-84935000D01*
X176175812Y-84810518D01*
X176139502Y-84690820D01*
X176117683Y-84650000D01*
X176139502Y-84609180D01*
X176175812Y-84489482D01*
X176188072Y-84365000D01*
X176188072Y-83711178D01*
X176273000Y-83626250D01*
X176273000Y-82377000D01*
X175573750Y-82377000D01*
X175415000Y-82535750D01*
X175412544Y-83026928D01*
X173750000Y-83026928D01*
X173625518Y-83039188D01*
X173505820Y-83075498D01*
X173403856Y-83130000D01*
X172183313Y-83130000D01*
X172255537Y-83041994D01*
X172314502Y-82931680D01*
X172350812Y-82811982D01*
X172363072Y-82687500D01*
X172360000Y-82385750D01*
X172201250Y-82227000D01*
X171127000Y-82227000D01*
X171127000Y-82247000D01*
X170873000Y-82247000D01*
X170873000Y-82227000D01*
X170853000Y-82227000D01*
X170853000Y-81973000D01*
X170873000Y-81973000D01*
X170873000Y-81036250D01*
X171127000Y-81036250D01*
X171127000Y-81973000D01*
X172201250Y-81973000D01*
X172360000Y-81814250D01*
X172363072Y-81512500D01*
X172350812Y-81388018D01*
X172339280Y-81350000D01*
X175411928Y-81350000D01*
X175415000Y-81964250D01*
X175573750Y-82123000D01*
X176273000Y-82123000D01*
X176273000Y-80873750D01*
X176527000Y-80873750D01*
X176527000Y-82123000D01*
X176547000Y-82123000D01*
X176547000Y-82377000D01*
X176527000Y-82377000D01*
X176527000Y-83626250D01*
X176685750Y-83785000D01*
X176750000Y-83788072D01*
X176874482Y-83775812D01*
X176994180Y-83739502D01*
X177035000Y-83717683D01*
X177075820Y-83739502D01*
X177195518Y-83775812D01*
X177320000Y-83788072D01*
X178020000Y-83788072D01*
X178144482Y-83775812D01*
X178264180Y-83739502D01*
X178305000Y-83717683D01*
X178345820Y-83739502D01*
X178465518Y-83775812D01*
X178590000Y-83788072D01*
X179290000Y-83788072D01*
X179414482Y-83775812D01*
X179534180Y-83739502D01*
X179575000Y-83717683D01*
X179615820Y-83739502D01*
X179735518Y-83775812D01*
X179860000Y-83788072D01*
X180508929Y-83788072D01*
X180504774Y-83798102D01*
X180465000Y-83998061D01*
X180465000Y-84201939D01*
X180504774Y-84401898D01*
X180582795Y-84590256D01*
X180696063Y-84759774D01*
X180840226Y-84903937D01*
X181009744Y-85017205D01*
X181198102Y-85095226D01*
X181398061Y-85135000D01*
X181601939Y-85135000D01*
X181801898Y-85095226D01*
X181990256Y-85017205D01*
X182100000Y-84943877D01*
X182209744Y-85017205D01*
X182398102Y-85095226D01*
X182598061Y-85135000D01*
X182801939Y-85135000D01*
X183001898Y-85095226D01*
X183190256Y-85017205D01*
X183350000Y-84910468D01*
X183509744Y-85017205D01*
X183698102Y-85095226D01*
X183898061Y-85135000D01*
X184101939Y-85135000D01*
X184301898Y-85095226D01*
X184490256Y-85017205D01*
X184650000Y-84910468D01*
X184809744Y-85017205D01*
X184998102Y-85095226D01*
X185198061Y-85135000D01*
X185401939Y-85135000D01*
X185601898Y-85095226D01*
X185790256Y-85017205D01*
X185900000Y-84943877D01*
X186009744Y-85017205D01*
X186198102Y-85095226D01*
X186398061Y-85135000D01*
X186601939Y-85135000D01*
X186801898Y-85095226D01*
X186990256Y-85017205D01*
X187150000Y-84910468D01*
X187309744Y-85017205D01*
X187498102Y-85095226D01*
X187698061Y-85135000D01*
X187901939Y-85135000D01*
X188101898Y-85095226D01*
X188290256Y-85017205D01*
X188450000Y-84910468D01*
X188609744Y-85017205D01*
X188798102Y-85095226D01*
X188998061Y-85135000D01*
X189201939Y-85135000D01*
X189401898Y-85095226D01*
X189590256Y-85017205D01*
X189759774Y-84903937D01*
X189903937Y-84759774D01*
X190017205Y-84590256D01*
X190095226Y-84401898D01*
X190135000Y-84201939D01*
X190135000Y-83998061D01*
X190095226Y-83798102D01*
X190091071Y-83788072D01*
X190720000Y-83788072D01*
X190844482Y-83775812D01*
X190964180Y-83739502D01*
X191005000Y-83717683D01*
X191045820Y-83739502D01*
X191165518Y-83775812D01*
X191290000Y-83788072D01*
X191990000Y-83788072D01*
X192114482Y-83775812D01*
X192234180Y-83739502D01*
X192275000Y-83717683D01*
X192315820Y-83739502D01*
X192435518Y-83775812D01*
X192560000Y-83788072D01*
X192624250Y-83785000D01*
X192783000Y-83626250D01*
X192783000Y-82377000D01*
X193037000Y-82377000D01*
X193037000Y-83626250D01*
X193195750Y-83785000D01*
X193260000Y-83788072D01*
X193384482Y-83775812D01*
X193504180Y-83739502D01*
X193614494Y-83680537D01*
X193711185Y-83601185D01*
X193790537Y-83504494D01*
X193849502Y-83394180D01*
X193885812Y-83274482D01*
X193898072Y-83150000D01*
X194461928Y-83150000D01*
X194474188Y-83274482D01*
X194510498Y-83394180D01*
X194569463Y-83504494D01*
X194648815Y-83601185D01*
X194745506Y-83680537D01*
X194855820Y-83739502D01*
X194975518Y-83775812D01*
X195100000Y-83788072D01*
X195164250Y-83785000D01*
X195323000Y-83626250D01*
X195323000Y-82377000D01*
X195577000Y-82377000D01*
X195577000Y-83626250D01*
X195735750Y-83785000D01*
X195800000Y-83788072D01*
X195924482Y-83775812D01*
X196044180Y-83739502D01*
X196085000Y-83717683D01*
X196125820Y-83739502D01*
X196245518Y-83775812D01*
X196370000Y-83788072D01*
X196434250Y-83785000D01*
X196593000Y-83626250D01*
X196593000Y-82377000D01*
X195577000Y-82377000D01*
X195323000Y-82377000D01*
X194623750Y-82377000D01*
X194465000Y-82535750D01*
X194461928Y-83150000D01*
X193898072Y-83150000D01*
X193895000Y-82535750D01*
X193736250Y-82377000D01*
X193037000Y-82377000D01*
X192783000Y-82377000D01*
X192763000Y-82377000D01*
X192763000Y-82123000D01*
X192783000Y-82123000D01*
X192783000Y-80873750D01*
X193037000Y-80873750D01*
X193037000Y-82123000D01*
X193736250Y-82123000D01*
X193895000Y-81964250D01*
X193898072Y-81350000D01*
X194461928Y-81350000D01*
X194465000Y-81964250D01*
X194623750Y-82123000D01*
X195323000Y-82123000D01*
X195323000Y-80873750D01*
X195577000Y-80873750D01*
X195577000Y-82123000D01*
X196593000Y-82123000D01*
X196593000Y-80873750D01*
X196434250Y-80715000D01*
X196370000Y-80711928D01*
X196245518Y-80724188D01*
X196125820Y-80760498D01*
X196085000Y-80782317D01*
X196044180Y-80760498D01*
X195924482Y-80724188D01*
X195800000Y-80711928D01*
X195735750Y-80715000D01*
X195577000Y-80873750D01*
X195323000Y-80873750D01*
X195164250Y-80715000D01*
X195100000Y-80711928D01*
X194975518Y-80724188D01*
X194855820Y-80760498D01*
X194745506Y-80819463D01*
X194648815Y-80898815D01*
X194569463Y-80995506D01*
X194510498Y-81105820D01*
X194474188Y-81225518D01*
X194461928Y-81350000D01*
X193898072Y-81350000D01*
X193885812Y-81225518D01*
X193849502Y-81105820D01*
X193790537Y-80995506D01*
X193711185Y-80898815D01*
X193614494Y-80819463D01*
X193504180Y-80760498D01*
X193384482Y-80724188D01*
X193260000Y-80711928D01*
X193195750Y-80715000D01*
X193037000Y-80873750D01*
X192783000Y-80873750D01*
X192624250Y-80715000D01*
X192560000Y-80711928D01*
X192435518Y-80724188D01*
X192315820Y-80760498D01*
X192275000Y-80782317D01*
X192234180Y-80760498D01*
X192114482Y-80724188D01*
X191990000Y-80711928D01*
X191290000Y-80711928D01*
X191165518Y-80724188D01*
X191045820Y-80760498D01*
X191005000Y-80782317D01*
X190964180Y-80760498D01*
X190844482Y-80724188D01*
X190720000Y-80711928D01*
X190020000Y-80711928D01*
X189895518Y-80724188D01*
X189775820Y-80760498D01*
X189735000Y-80782317D01*
X189694180Y-80760498D01*
X189574482Y-80724188D01*
X189450000Y-80711928D01*
X188750000Y-80711928D01*
X188625518Y-80724188D01*
X188505820Y-80760498D01*
X188465000Y-80782317D01*
X188424180Y-80760498D01*
X188304482Y-80724188D01*
X188180000Y-80711928D01*
X187480000Y-80711928D01*
X187355518Y-80724188D01*
X187235820Y-80760498D01*
X187195000Y-80782317D01*
X187154180Y-80760498D01*
X187034482Y-80724188D01*
X186910000Y-80711928D01*
X186210000Y-80711928D01*
X186085518Y-80724188D01*
X185965820Y-80760498D01*
X185925000Y-80782317D01*
X185884180Y-80760498D01*
X185764482Y-80724188D01*
X185640000Y-80711928D01*
X184940000Y-80711928D01*
X184815518Y-80724188D01*
X184695820Y-80760498D01*
X184655000Y-80782317D01*
X184614180Y-80760498D01*
X184494482Y-80724188D01*
X184370000Y-80711928D01*
X183670000Y-80711928D01*
X183545518Y-80724188D01*
X183425820Y-80760498D01*
X183385000Y-80782317D01*
X183344180Y-80760498D01*
X183224482Y-80724188D01*
X183100000Y-80711928D01*
X182400000Y-80711928D01*
X182275518Y-80724188D01*
X182155820Y-80760498D01*
X182115000Y-80782317D01*
X182074180Y-80760498D01*
X181954482Y-80724188D01*
X181830000Y-80711928D01*
X181130000Y-80711928D01*
X181005518Y-80724188D01*
X180885820Y-80760498D01*
X180845000Y-80782317D01*
X180804180Y-80760498D01*
X180684482Y-80724188D01*
X180560000Y-80711928D01*
X179860000Y-80711928D01*
X179735518Y-80724188D01*
X179615820Y-80760498D01*
X179575000Y-80782317D01*
X179534180Y-80760498D01*
X179414482Y-80724188D01*
X179290000Y-80711928D01*
X178590000Y-80711928D01*
X178465518Y-80724188D01*
X178345820Y-80760498D01*
X178305000Y-80782317D01*
X178264180Y-80760498D01*
X178144482Y-80724188D01*
X178020000Y-80711928D01*
X177320000Y-80711928D01*
X177195518Y-80724188D01*
X177075820Y-80760498D01*
X177035000Y-80782317D01*
X176994180Y-80760498D01*
X176874482Y-80724188D01*
X176750000Y-80711928D01*
X176685750Y-80715000D01*
X176527000Y-80873750D01*
X176273000Y-80873750D01*
X176114250Y-80715000D01*
X176050000Y-80711928D01*
X175925518Y-80724188D01*
X175805820Y-80760498D01*
X175695506Y-80819463D01*
X175598815Y-80898815D01*
X175519463Y-80995506D01*
X175460498Y-81105820D01*
X175424188Y-81225518D01*
X175411928Y-81350000D01*
X172339280Y-81350000D01*
X172314502Y-81268320D01*
X172255537Y-81158006D01*
X172176185Y-81061315D01*
X172079494Y-80981963D01*
X171969180Y-80922998D01*
X171849482Y-80886688D01*
X171725000Y-80874428D01*
X171285750Y-80877500D01*
X171127000Y-81036250D01*
X170873000Y-81036250D01*
X170714250Y-80877500D01*
X170275000Y-80874428D01*
X170150518Y-80886688D01*
X170030820Y-80922998D01*
X169920506Y-80981963D01*
X169823815Y-81061315D01*
X169809699Y-81078516D01*
X169743387Y-81024095D01*
X169589851Y-80942028D01*
X169423255Y-80891492D01*
X169250001Y-80874428D01*
X168349999Y-80874428D01*
X168176745Y-80891492D01*
X168010149Y-80942028D01*
X167856613Y-81024095D01*
X167722038Y-81134538D01*
X167648541Y-81224094D01*
X167601898Y-81204774D01*
X167401939Y-81165000D01*
X167198061Y-81165000D01*
X166998102Y-81204774D01*
X166809744Y-81282795D01*
X166640226Y-81396063D01*
X166496063Y-81540226D01*
X166382795Y-81709744D01*
X166304774Y-81898102D01*
X166265000Y-82098061D01*
X166265000Y-82301939D01*
X166304774Y-82501898D01*
X166382795Y-82690256D01*
X166496063Y-82859774D01*
X166640226Y-83003937D01*
X166809744Y-83117205D01*
X166998102Y-83195226D01*
X167198061Y-83235000D01*
X167401939Y-83235000D01*
X167601898Y-83195226D01*
X167708456Y-83151088D01*
X167611595Y-83269113D01*
X167529528Y-83422649D01*
X167478992Y-83589245D01*
X167461928Y-83762499D01*
X167461928Y-84111493D01*
X164487955Y-87085467D01*
X164474900Y-87078489D01*
X164242101Y-87007870D01*
X164000000Y-86984025D01*
X163757898Y-87007870D01*
X163525099Y-87078489D01*
X163310551Y-87193167D01*
X163252089Y-87241146D01*
X163080533Y-87127579D01*
X162855282Y-87035409D01*
X162817609Y-87031538D01*
X162627000Y-87156269D01*
X162627000Y-88373000D01*
X162647000Y-88373000D01*
X162647000Y-88627000D01*
X162627000Y-88627000D01*
X162627000Y-88647000D01*
X162373000Y-88647000D01*
X162373000Y-88627000D01*
X161265000Y-88627000D01*
X161265000Y-88902000D01*
X161313507Y-89140496D01*
X161407610Y-89364946D01*
X161543693Y-89566725D01*
X161716526Y-89738078D01*
X161919467Y-89872421D01*
X162144718Y-89964591D01*
X162182391Y-89968462D01*
X162372998Y-89843732D01*
X162372998Y-90000424D01*
X162258422Y-90115000D01*
X158057892Y-90115000D01*
X158060000Y-90104401D01*
X158060000Y-89895599D01*
X158019265Y-89690809D01*
X157940229Y-89500000D01*
X158019265Y-89309191D01*
X158060000Y-89104401D01*
X158060000Y-88895599D01*
X158019265Y-88690809D01*
X157940229Y-88500000D01*
X158019265Y-88309191D01*
X158060000Y-88104401D01*
X158060000Y-88098000D01*
X161265000Y-88098000D01*
X161265000Y-88373000D01*
X162373000Y-88373000D01*
X162373000Y-87156269D01*
X162182391Y-87031538D01*
X162144718Y-87035409D01*
X161919467Y-87127579D01*
X161716526Y-87261922D01*
X161543693Y-87433275D01*
X161407610Y-87635054D01*
X161313507Y-87859504D01*
X161265000Y-88098000D01*
X158060000Y-88098000D01*
X158060000Y-87895599D01*
X158019265Y-87690809D01*
X157939360Y-87497902D01*
X157936006Y-87492882D01*
X158008872Y-87325250D01*
X158019540Y-87290062D01*
X157892257Y-87127000D01*
X157601413Y-87127000D01*
X157502098Y-87060640D01*
X157492031Y-87056470D01*
X157549482Y-87050812D01*
X157669180Y-87014502D01*
X157779494Y-86955537D01*
X157876185Y-86876185D01*
X157878799Y-86873000D01*
X157892257Y-86873000D01*
X158019540Y-86709938D01*
X158009832Y-86677917D01*
X158014502Y-86669180D01*
X158050812Y-86549482D01*
X158063072Y-86425000D01*
X158060000Y-86285750D01*
X157901250Y-86127000D01*
X157592768Y-86127000D01*
X157483394Y-86056632D01*
X157290064Y-85980453D01*
X157127000Y-86106379D01*
X157127000Y-86147000D01*
X156873000Y-86147000D01*
X156873000Y-86106379D01*
X156709936Y-85980453D01*
X156516606Y-86056632D01*
X156407232Y-86127000D01*
X156098750Y-86127000D01*
X155940000Y-86285750D01*
X155936928Y-86425000D01*
X152975081Y-86425000D01*
X152974091Y-86424181D01*
X152747227Y-86239155D01*
X152697408Y-86206055D01*
X152648045Y-86172256D01*
X152639939Y-86167873D01*
X152381458Y-86030436D01*
X152326164Y-86007645D01*
X152271171Y-85984075D01*
X152262368Y-85981350D01*
X151982114Y-85896736D01*
X151923429Y-85885116D01*
X151864921Y-85872680D01*
X151855758Y-85871717D01*
X151855756Y-85871717D01*
X151564404Y-85843150D01*
X151564402Y-85843150D01*
X151532419Y-85840000D01*
X150660000Y-85840000D01*
X150660000Y-85575000D01*
X155936928Y-85575000D01*
X155940000Y-85714250D01*
X156098750Y-85873000D01*
X156873000Y-85873000D01*
X156873000Y-85098750D01*
X157127000Y-85098750D01*
X157127000Y-85873000D01*
X157901250Y-85873000D01*
X158060000Y-85714250D01*
X158063072Y-85575000D01*
X158050812Y-85450518D01*
X158014502Y-85330820D01*
X157955537Y-85220506D01*
X157876185Y-85123815D01*
X157779494Y-85044463D01*
X157669180Y-84985498D01*
X157549482Y-84949188D01*
X157425000Y-84936928D01*
X157285750Y-84940000D01*
X157127000Y-85098750D01*
X156873000Y-85098750D01*
X156714250Y-84940000D01*
X156575000Y-84936928D01*
X156450518Y-84949188D01*
X156330820Y-84985498D01*
X156220506Y-85044463D01*
X156123815Y-85123815D01*
X156044463Y-85220506D01*
X155985498Y-85330820D01*
X155949188Y-85450518D01*
X155936928Y-85575000D01*
X150660000Y-85575000D01*
X150660000Y-80660000D01*
X196840000Y-80660000D01*
X196840001Y-99967572D01*
G37*
G04 #@! TD.AperFunction*
D20*
X173298815Y-98786185D02*
X173395506Y-98865537D01*
X173505820Y-98924502D01*
X173625518Y-98960812D01*
X173750000Y-98973072D01*
X175411928Y-98973072D01*
X175411928Y-99663271D01*
X174988998Y-100086201D01*
X174960000Y-100109999D01*
X174936202Y-100138997D01*
X174936201Y-100138998D01*
X174865026Y-100225724D01*
X174794454Y-100357754D01*
X174750998Y-100501015D01*
X174736324Y-100650000D01*
X174740001Y-100687332D01*
X174740000Y-111782713D01*
X174714599Y-111777660D01*
X174510721Y-111777660D01*
X174310762Y-111817434D01*
X174122404Y-111895455D01*
X174070618Y-111930057D01*
X174009291Y-111889080D01*
X173820933Y-111811059D01*
X173620974Y-111771285D01*
X173417096Y-111771285D01*
X173217137Y-111811059D01*
X173028779Y-111889080D01*
X173011077Y-111900908D01*
X173002916Y-111895455D01*
X172814558Y-111817434D01*
X172614599Y-111777660D01*
X172410721Y-111777660D01*
X172210762Y-111817434D01*
X172022404Y-111895455D01*
X172015804Y-111899865D01*
X171990256Y-111882795D01*
X171801898Y-111804774D01*
X171601939Y-111765000D01*
X171398061Y-111765000D01*
X171260000Y-111792462D01*
X171260000Y-99614801D01*
X172129802Y-98745000D01*
X173265015Y-98745000D01*
X173298815Y-98786185D01*
G04 #@! TA.AperFunction,Conductor*
D21*
G36*
X173298815Y-98786185D02*
G01*
X173395506Y-98865537D01*
X173505820Y-98924502D01*
X173625518Y-98960812D01*
X173750000Y-98973072D01*
X175411928Y-98973072D01*
X175411928Y-99663271D01*
X174988998Y-100086201D01*
X174960000Y-100109999D01*
X174936202Y-100138997D01*
X174936201Y-100138998D01*
X174865026Y-100225724D01*
X174794454Y-100357754D01*
X174750998Y-100501015D01*
X174736324Y-100650000D01*
X174740001Y-100687332D01*
X174740000Y-111782713D01*
X174714599Y-111777660D01*
X174510721Y-111777660D01*
X174310762Y-111817434D01*
X174122404Y-111895455D01*
X174070618Y-111930057D01*
X174009291Y-111889080D01*
X173820933Y-111811059D01*
X173620974Y-111771285D01*
X173417096Y-111771285D01*
X173217137Y-111811059D01*
X173028779Y-111889080D01*
X173011077Y-111900908D01*
X173002916Y-111895455D01*
X172814558Y-111817434D01*
X172614599Y-111777660D01*
X172410721Y-111777660D01*
X172210762Y-111817434D01*
X172022404Y-111895455D01*
X172015804Y-111899865D01*
X171990256Y-111882795D01*
X171801898Y-111804774D01*
X171601939Y-111765000D01*
X171398061Y-111765000D01*
X171260000Y-111792462D01*
X171260000Y-99614801D01*
X172129802Y-98745000D01*
X173265015Y-98745000D01*
X173298815Y-98786185D01*
G37*
G04 #@! TD.AperFunction*
M02*
