G04 #@! TF.GenerationSoftware,KiCad,Pcbnew,5.1.8*
G04 #@! TF.CreationDate,2020-11-29T11:20:09+01:00*
G04 #@! TF.ProjectId,mssculpt,6d737363-756c-4707-942e-6b696361645f,rev?*
G04 #@! TF.SameCoordinates,Original*
G04 #@! TF.FileFunction,Copper,L2,Bot*
G04 #@! TF.FilePolarity,Positive*
%FSLAX46Y46*%
G04 Gerber Fmt 4.6, Leading zero omitted, Abs format (unit mm)*
G04 Created by KiCad (PCBNEW 5.1.8) date 2020-11-29 11:20:09*
%MOMM*%
%LPD*%
G01*
G04 APERTURE LIST*
G04 #@! TA.AperFunction,ComponentPad*
%ADD10O,1.200000X1.750000*%
G04 #@! TD*
G04 #@! TA.AperFunction,ComponentPad*
%ADD11R,0.850000X0.850000*%
G04 #@! TD*
G04 #@! TA.AperFunction,ComponentPad*
%ADD12O,0.850000X0.850000*%
G04 #@! TD*
G04 #@! TA.AperFunction,ViaPad*
%ADD13C,0.800000*%
G04 #@! TD*
G04 #@! TA.AperFunction,Conductor*
%ADD14C,0.500000*%
G04 #@! TD*
G04 #@! TA.AperFunction,Conductor*
%ADD15C,0.250000*%
G04 #@! TD*
G04 #@! TA.AperFunction,Conductor*
%ADD16C,0.254000*%
G04 #@! TD*
G04 #@! TA.AperFunction,Conductor*
%ADD17C,0.100000*%
G04 #@! TD*
G04 APERTURE END LIST*
D10*
X162500000Y-88500000D03*
X164000000Y-88500000D03*
D11*
X157000000Y-86000000D03*
D12*
X157000000Y-87000000D03*
X157000000Y-88000000D03*
X157000000Y-89000000D03*
X157000000Y-90000000D03*
X157000000Y-91000000D03*
D13*
X152000000Y-82000000D03*
X154000000Y-82000000D03*
X156000000Y-82000000D03*
X158000000Y-82000000D03*
X160000000Y-82000000D03*
X162000000Y-82000000D03*
X164000000Y-82000000D03*
X152000000Y-84000000D03*
X154000000Y-84000000D03*
X160000000Y-84000000D03*
X162000000Y-84000000D03*
X164000000Y-84000000D03*
X154000000Y-86000000D03*
X154000000Y-88000000D03*
X154000000Y-90000000D03*
X152000000Y-99000000D03*
X154000000Y-99000000D03*
X154000000Y-101000000D03*
X152000000Y-101000000D03*
X152000000Y-103000000D03*
X154000000Y-103000000D03*
X154000000Y-105000000D03*
X152000000Y-105000000D03*
X152000000Y-107000000D03*
X156000000Y-105000000D03*
X156000000Y-103000000D03*
X156000000Y-101000000D03*
X156000000Y-99000000D03*
X158000000Y-99000000D03*
X158000000Y-101000000D03*
X158000000Y-103000000D03*
X158000000Y-105000000D03*
X158000000Y-97000000D03*
X158000000Y-95000000D03*
X158000000Y-93000000D03*
X160000000Y-93000000D03*
X160000000Y-95000000D03*
X160000000Y-97000000D03*
X160000000Y-99000000D03*
X160000000Y-101000000D03*
X160000000Y-103000000D03*
X160000000Y-105000000D03*
X160000000Y-107000000D03*
X160000000Y-109000000D03*
X160000000Y-111000000D03*
X152000000Y-109000000D03*
X152000000Y-111000000D03*
X152000000Y-113000000D03*
X154000000Y-113000000D03*
X156000000Y-113000000D03*
X158000000Y-113000000D03*
X152000000Y-115000000D03*
X152000000Y-117000000D03*
X154000000Y-117000000D03*
X154000000Y-115000000D03*
X174000000Y-103000000D03*
X172000000Y-103000000D03*
X172000000Y-105000000D03*
X174000000Y-105000000D03*
X174000000Y-107000000D03*
X172000000Y-107000000D03*
X172000000Y-109000000D03*
X172000000Y-99000000D03*
X174000000Y-99000000D03*
X196500000Y-102000000D03*
X195000000Y-102000000D03*
X195000000Y-104000000D03*
X196500000Y-104000000D03*
X196500000Y-106000000D03*
X195000000Y-106000000D03*
X196500000Y-108000000D03*
X196500000Y-110000000D03*
X196500000Y-112000000D03*
X195000000Y-114000000D03*
X193000000Y-114000000D03*
X191000000Y-114000000D03*
X193000000Y-102000000D03*
X193000000Y-104000000D03*
X193000000Y-106000000D03*
X196000000Y-85000000D03*
X194000000Y-85000000D03*
X192000000Y-85000000D03*
X192000000Y-87000000D03*
X194000000Y-87000000D03*
X196000000Y-87000000D03*
X196000000Y-89000000D03*
X194000000Y-89000000D03*
X192000000Y-89000000D03*
X192000000Y-91000000D03*
X194000000Y-91000000D03*
X196000000Y-91000000D03*
X196000000Y-93000000D03*
X194000000Y-93000000D03*
X192000000Y-93000000D03*
X192000000Y-95000000D03*
X194000000Y-95000000D03*
X196000000Y-95000000D03*
X196000000Y-97000000D03*
X194000000Y-97000000D03*
X192000000Y-97000000D03*
X186000000Y-88000000D03*
X186000000Y-90000000D03*
X186000000Y-92000000D03*
X178000000Y-85000000D03*
X178000000Y-87000000D03*
X178000000Y-89000000D03*
X178000000Y-91000000D03*
X168000000Y-87000000D03*
X170000000Y-87000000D03*
X168000000Y-89000000D03*
X172000000Y-101000000D03*
X174000000Y-101000000D03*
X172000000Y-111000000D03*
X174000000Y-109000000D03*
X171500000Y-112800000D03*
X181500000Y-84100000D03*
X182700000Y-84100000D03*
X172512660Y-112812660D03*
X184000000Y-84100000D03*
X173519035Y-112806285D03*
X185300000Y-84100000D03*
X174612660Y-112812660D03*
X186500000Y-112750000D03*
X186500000Y-84100000D03*
X187500000Y-112750000D03*
X187800000Y-84100000D03*
X188500000Y-112750000D03*
X189100000Y-84100000D03*
X167300000Y-82200000D03*
X177600000Y-94100000D03*
X177600000Y-95100000D03*
X177600000Y-96100000D03*
D14*
X157000000Y-86000000D02*
X157000000Y-87000000D01*
D15*
X180000000Y-85600000D02*
X181500000Y-84100000D01*
X180000000Y-104300000D02*
X180000000Y-85600000D01*
X171500000Y-112800000D02*
X180000000Y-104300000D01*
X181000000Y-104300000D02*
X172512660Y-112787340D01*
X172512660Y-112787340D02*
X172512660Y-112812660D01*
X181000000Y-85800000D02*
X181000000Y-104300000D01*
X182700000Y-84100000D02*
X181000000Y-85800000D01*
X182100000Y-86000000D02*
X182100000Y-104225320D01*
X184000000Y-84100000D02*
X182100000Y-86000000D01*
X182100000Y-104225320D02*
X173519035Y-112806285D01*
X183000000Y-104425320D02*
X174612660Y-112812660D01*
X183000000Y-86400000D02*
X183000000Y-104425320D01*
X185300000Y-84100000D02*
X183000000Y-86400000D01*
X183900000Y-86700000D02*
X186500000Y-84100000D01*
X183900000Y-108500000D02*
X183900000Y-86700000D01*
X186500000Y-111100000D02*
X183900000Y-108500000D01*
X186500000Y-112750000D02*
X186500000Y-111100000D01*
X184700000Y-103400000D02*
X187800000Y-100300000D01*
X187500000Y-111000000D02*
X184700000Y-108200000D01*
X187500000Y-112750000D02*
X187500000Y-111000000D01*
X187800000Y-100300000D02*
X187800000Y-84100000D01*
X184700000Y-108200000D02*
X184700000Y-103400000D01*
X185274999Y-104451999D02*
X188026998Y-101700000D01*
X185274999Y-107548001D02*
X185274999Y-104451999D01*
X188500000Y-110773002D02*
X185274999Y-107548001D01*
X188500000Y-112750000D02*
X188500000Y-110773002D01*
X188026998Y-101700000D02*
X188026998Y-101673002D01*
X189100000Y-100600000D02*
X189100000Y-84100000D01*
X188026998Y-101673002D02*
X189100000Y-100600000D01*
X187200000Y-82200000D02*
X189100000Y-84100000D01*
X167300000Y-82200000D02*
X187200000Y-82200000D01*
X166218205Y-94100000D02*
X177600000Y-94100000D01*
X160118205Y-88000000D02*
X166218205Y-94100000D01*
X157000000Y-88000000D02*
X160118205Y-88000000D01*
X165800000Y-95100000D02*
X177600000Y-95100000D01*
X159700000Y-89000000D02*
X165800000Y-95100000D01*
X157000000Y-89000000D02*
X159700000Y-89000000D01*
X165400000Y-96100000D02*
X177600000Y-96100000D01*
X159300000Y-90000000D02*
X165400000Y-96100000D01*
X157000000Y-90000000D02*
X159300000Y-90000000D01*
D16*
X196840001Y-99967572D02*
X196840000Y-99967582D01*
X196840001Y-114226618D01*
X191726620Y-119340000D01*
X150660000Y-119340000D01*
X150660000Y-108682168D01*
X152273000Y-108682168D01*
X152273000Y-109317832D01*
X152397012Y-109941281D01*
X152640270Y-110528558D01*
X152993425Y-111057093D01*
X153442907Y-111506575D01*
X153971442Y-111859730D01*
X154558719Y-112102988D01*
X155182168Y-112227000D01*
X155817832Y-112227000D01*
X156441281Y-112102988D01*
X157028558Y-111859730D01*
X157557093Y-111506575D01*
X158006575Y-111057093D01*
X158359730Y-110528558D01*
X158602988Y-109941281D01*
X158727000Y-109317832D01*
X158727000Y-108682168D01*
X158602988Y-108058719D01*
X158359730Y-107471442D01*
X158006575Y-106942907D01*
X157557093Y-106493425D01*
X157028558Y-106140270D01*
X156441281Y-105897012D01*
X155817832Y-105773000D01*
X155182168Y-105773000D01*
X154558719Y-105897012D01*
X153971442Y-106140270D01*
X153442907Y-106493425D01*
X152993425Y-106942907D01*
X152640270Y-107471442D01*
X152397012Y-108058719D01*
X152273000Y-108682168D01*
X150660000Y-108682168D01*
X150660000Y-98160000D01*
X153532419Y-98160000D01*
X153534718Y-98159774D01*
X153539519Y-98159740D01*
X153569333Y-98156606D01*
X153599309Y-98156606D01*
X153608474Y-98155643D01*
X154093348Y-98101256D01*
X154151863Y-98088818D01*
X154210540Y-98077200D01*
X154219343Y-98074475D01*
X154684419Y-97926944D01*
X154739391Y-97903383D01*
X154794706Y-97880584D01*
X154802812Y-97876201D01*
X155230374Y-97641147D01*
X155279736Y-97607348D01*
X155329558Y-97574247D01*
X155336658Y-97568373D01*
X155710423Y-97254747D01*
X155752286Y-97211997D01*
X155794721Y-97169858D01*
X155800545Y-97162717D01*
X156106274Y-96782467D01*
X156139034Y-96732404D01*
X156172479Y-96682820D01*
X156176805Y-96674683D01*
X156402854Y-96242291D01*
X156425250Y-96186859D01*
X156448444Y-96131683D01*
X156451107Y-96122861D01*
X156588865Y-95654798D01*
X156600066Y-95596079D01*
X156612103Y-95537442D01*
X156613002Y-95528271D01*
X156657223Y-95042365D01*
X156656805Y-94982547D01*
X156657223Y-94922730D01*
X156656323Y-94913558D01*
X156605322Y-94428316D01*
X156593302Y-94369760D01*
X156582086Y-94310959D01*
X156579422Y-94302138D01*
X156435142Y-93836044D01*
X156411954Y-93780881D01*
X156389552Y-93725435D01*
X156385226Y-93717299D01*
X156153162Y-93288106D01*
X156119729Y-93238539D01*
X156086958Y-93188460D01*
X156081134Y-93181319D01*
X155770125Y-92805374D01*
X155727708Y-92763252D01*
X155685826Y-92720483D01*
X155678725Y-92714610D01*
X155300618Y-92406233D01*
X155250809Y-92373141D01*
X155201437Y-92339334D01*
X155193331Y-92334952D01*
X154762527Y-92105890D01*
X154707233Y-92083099D01*
X154652240Y-92059529D01*
X154643437Y-92056804D01*
X154176347Y-91915781D01*
X154117653Y-91904159D01*
X154059156Y-91891725D01*
X154049991Y-91890762D01*
X153564405Y-91843150D01*
X153564402Y-91843150D01*
X153532419Y-91840000D01*
X150660000Y-91840000D01*
X150660000Y-90160000D01*
X151532419Y-90160000D01*
X151565884Y-90156704D01*
X151585349Y-90156704D01*
X151594514Y-90155741D01*
X151885438Y-90123108D01*
X151943941Y-90110672D01*
X152002629Y-90099052D01*
X152011432Y-90096327D01*
X152290476Y-90007809D01*
X152345412Y-89984263D01*
X152400764Y-89961449D01*
X152408870Y-89957065D01*
X152665408Y-89816032D01*
X152714753Y-89782245D01*
X152764591Y-89749133D01*
X152771691Y-89743259D01*
X152995949Y-89555084D01*
X153037793Y-89512354D01*
X153080248Y-89470195D01*
X153086072Y-89463053D01*
X153269509Y-89234903D01*
X153302251Y-89184869D01*
X153335714Y-89135258D01*
X153340040Y-89127122D01*
X153475670Y-88867687D01*
X153498082Y-88812215D01*
X153521260Y-88757077D01*
X153523923Y-88748255D01*
X153606578Y-88467417D01*
X153617785Y-88408669D01*
X153629816Y-88350059D01*
X153630715Y-88340888D01*
X153657247Y-88049344D01*
X153656829Y-87989528D01*
X153657247Y-87929712D01*
X153656348Y-87920541D01*
X153625748Y-87629395D01*
X153613710Y-87570753D01*
X153602510Y-87512037D01*
X153599847Y-87503216D01*
X153513279Y-87223560D01*
X153490101Y-87168422D01*
X153467689Y-87112950D01*
X153463362Y-87104814D01*
X153324123Y-86847298D01*
X153290701Y-86797749D01*
X153257920Y-86747653D01*
X153252095Y-86740512D01*
X153065490Y-86514945D01*
X153023054Y-86472804D01*
X152981191Y-86430055D01*
X152975081Y-86425000D01*
X155936928Y-86425000D01*
X155949188Y-86549482D01*
X155985498Y-86669180D01*
X155990168Y-86677917D01*
X155980460Y-86709938D01*
X156107743Y-86873000D01*
X156121201Y-86873000D01*
X156123815Y-86876185D01*
X156220506Y-86955537D01*
X156330820Y-87014502D01*
X156450518Y-87050812D01*
X156507969Y-87056470D01*
X156497902Y-87060640D01*
X156398587Y-87127000D01*
X156107743Y-87127000D01*
X155980460Y-87290062D01*
X155991128Y-87325250D01*
X156063994Y-87492882D01*
X156060640Y-87497902D01*
X155980735Y-87690809D01*
X155940000Y-87895599D01*
X155940000Y-88104401D01*
X155980735Y-88309191D01*
X156059771Y-88500000D01*
X155980735Y-88690809D01*
X155940000Y-88895599D01*
X155940000Y-89104401D01*
X155980735Y-89309191D01*
X156059771Y-89500000D01*
X155980735Y-89690809D01*
X155940000Y-89895599D01*
X155940000Y-90104401D01*
X155980735Y-90309191D01*
X156059771Y-90500000D01*
X155980735Y-90690809D01*
X155940000Y-90895599D01*
X155940000Y-91104401D01*
X155980735Y-91309191D01*
X156060640Y-91502098D01*
X156176644Y-91675711D01*
X156324289Y-91823356D01*
X156497902Y-91939360D01*
X156690809Y-92019265D01*
X156895599Y-92060000D01*
X157104401Y-92060000D01*
X157309191Y-92019265D01*
X157502098Y-91939360D01*
X157675711Y-91823356D01*
X157823356Y-91675711D01*
X157939360Y-91502098D01*
X158019265Y-91309191D01*
X158060000Y-91104401D01*
X158060000Y-90895599D01*
X158033028Y-90760000D01*
X158985199Y-90760000D01*
X164836201Y-96611003D01*
X164859999Y-96640001D01*
X164975724Y-96734974D01*
X165107753Y-96805546D01*
X165251014Y-96849003D01*
X165362667Y-96860000D01*
X165362675Y-96860000D01*
X165400000Y-96863676D01*
X165437325Y-96860000D01*
X176896289Y-96860000D01*
X176940226Y-96903937D01*
X177109744Y-97017205D01*
X177298102Y-97095226D01*
X177498061Y-97135000D01*
X177701939Y-97135000D01*
X177901898Y-97095226D01*
X178090256Y-97017205D01*
X178259774Y-96903937D01*
X178403937Y-96759774D01*
X178517205Y-96590256D01*
X178595226Y-96401898D01*
X178635000Y-96201939D01*
X178635000Y-95998061D01*
X178595226Y-95798102D01*
X178517205Y-95609744D01*
X178510694Y-95600000D01*
X178517205Y-95590256D01*
X178595226Y-95401898D01*
X178635000Y-95201939D01*
X178635000Y-94998061D01*
X178595226Y-94798102D01*
X178517205Y-94609744D01*
X178510694Y-94600000D01*
X178517205Y-94590256D01*
X178595226Y-94401898D01*
X178635000Y-94201939D01*
X178635000Y-93998061D01*
X178595226Y-93798102D01*
X178517205Y-93609744D01*
X178403937Y-93440226D01*
X178259774Y-93296063D01*
X178090256Y-93182795D01*
X177901898Y-93104774D01*
X177701939Y-93065000D01*
X177498061Y-93065000D01*
X177298102Y-93104774D01*
X177109744Y-93182795D01*
X176940226Y-93296063D01*
X176896289Y-93340000D01*
X166533007Y-93340000D01*
X163069814Y-89876807D01*
X163080533Y-89872421D01*
X163252089Y-89758854D01*
X163310552Y-89806833D01*
X163525100Y-89921511D01*
X163757899Y-89992130D01*
X164000000Y-90015975D01*
X164242102Y-89992130D01*
X164474901Y-89921511D01*
X164689449Y-89806833D01*
X164877502Y-89652502D01*
X165031833Y-89464449D01*
X165146511Y-89249900D01*
X165217130Y-89017101D01*
X165235000Y-88835664D01*
X165235000Y-88164335D01*
X165217130Y-87982898D01*
X165146511Y-87750099D01*
X165031833Y-87535551D01*
X164877502Y-87347498D01*
X164689448Y-87193167D01*
X164474900Y-87078489D01*
X164242101Y-87007870D01*
X164000000Y-86984025D01*
X163757898Y-87007870D01*
X163525099Y-87078489D01*
X163310551Y-87193167D01*
X163252089Y-87241146D01*
X163080533Y-87127579D01*
X162855282Y-87035409D01*
X162817609Y-87031538D01*
X162627000Y-87156269D01*
X162627000Y-88373000D01*
X162647000Y-88373000D01*
X162647000Y-88627000D01*
X162627000Y-88627000D01*
X162627000Y-88647000D01*
X162373000Y-88647000D01*
X162373000Y-88627000D01*
X162353000Y-88627000D01*
X162353000Y-88373000D01*
X162373000Y-88373000D01*
X162373000Y-87156269D01*
X162182391Y-87031538D01*
X162144718Y-87035409D01*
X161919467Y-87127579D01*
X161716526Y-87261922D01*
X161543693Y-87433275D01*
X161407610Y-87635054D01*
X161313507Y-87859504D01*
X161269395Y-88076389D01*
X160682009Y-87489003D01*
X160658206Y-87459999D01*
X160542481Y-87365026D01*
X160410452Y-87294454D01*
X160267191Y-87250997D01*
X160155538Y-87240000D01*
X160155527Y-87240000D01*
X160118205Y-87236324D01*
X160080883Y-87240000D01*
X157980463Y-87240000D01*
X157892257Y-87127000D01*
X157601413Y-87127000D01*
X157502098Y-87060640D01*
X157492031Y-87056470D01*
X157549482Y-87050812D01*
X157669180Y-87014502D01*
X157779494Y-86955537D01*
X157876185Y-86876185D01*
X157878799Y-86873000D01*
X157892257Y-86873000D01*
X158019540Y-86709938D01*
X158009832Y-86677917D01*
X158014502Y-86669180D01*
X158050812Y-86549482D01*
X158063072Y-86425000D01*
X158060000Y-86285750D01*
X157901250Y-86127000D01*
X157592768Y-86127000D01*
X157483394Y-86056632D01*
X157290064Y-85980453D01*
X157127000Y-86106379D01*
X157127000Y-86147000D01*
X156873000Y-86147000D01*
X156873000Y-86106379D01*
X156709936Y-85980453D01*
X156516606Y-86056632D01*
X156407232Y-86127000D01*
X156098750Y-86127000D01*
X155940000Y-86285750D01*
X155936928Y-86425000D01*
X152975081Y-86425000D01*
X152974091Y-86424181D01*
X152747227Y-86239155D01*
X152697408Y-86206055D01*
X152648045Y-86172256D01*
X152639939Y-86167873D01*
X152381458Y-86030436D01*
X152326164Y-86007645D01*
X152271171Y-85984075D01*
X152262368Y-85981350D01*
X151982114Y-85896736D01*
X151923429Y-85885116D01*
X151864921Y-85872680D01*
X151855758Y-85871717D01*
X151855756Y-85871717D01*
X151564404Y-85843150D01*
X151564402Y-85843150D01*
X151532419Y-85840000D01*
X150660000Y-85840000D01*
X150660000Y-85575000D01*
X155936928Y-85575000D01*
X155940000Y-85714250D01*
X156098750Y-85873000D01*
X156873000Y-85873000D01*
X156873000Y-85098750D01*
X157127000Y-85098750D01*
X157127000Y-85873000D01*
X157901250Y-85873000D01*
X158060000Y-85714250D01*
X158063072Y-85575000D01*
X158050812Y-85450518D01*
X158014502Y-85330820D01*
X157955537Y-85220506D01*
X157876185Y-85123815D01*
X157779494Y-85044463D01*
X157669180Y-84985498D01*
X157549482Y-84949188D01*
X157425000Y-84936928D01*
X157285750Y-84940000D01*
X157127000Y-85098750D01*
X156873000Y-85098750D01*
X156714250Y-84940000D01*
X156575000Y-84936928D01*
X156450518Y-84949188D01*
X156330820Y-84985498D01*
X156220506Y-85044463D01*
X156123815Y-85123815D01*
X156044463Y-85220506D01*
X155985498Y-85330820D01*
X155949188Y-85450518D01*
X155936928Y-85575000D01*
X150660000Y-85575000D01*
X150660000Y-82098061D01*
X166265000Y-82098061D01*
X166265000Y-82301939D01*
X166304774Y-82501898D01*
X166382795Y-82690256D01*
X166496063Y-82859774D01*
X166640226Y-83003937D01*
X166809744Y-83117205D01*
X166998102Y-83195226D01*
X167198061Y-83235000D01*
X167401939Y-83235000D01*
X167601898Y-83195226D01*
X167790256Y-83117205D01*
X167959774Y-83003937D01*
X168003711Y-82960000D01*
X186885199Y-82960000D01*
X187188803Y-83263605D01*
X187150000Y-83289532D01*
X186990256Y-83182795D01*
X186801898Y-83104774D01*
X186601939Y-83065000D01*
X186398061Y-83065000D01*
X186198102Y-83104774D01*
X186009744Y-83182795D01*
X185900000Y-83256123D01*
X185790256Y-83182795D01*
X185601898Y-83104774D01*
X185401939Y-83065000D01*
X185198061Y-83065000D01*
X184998102Y-83104774D01*
X184809744Y-83182795D01*
X184650000Y-83289532D01*
X184490256Y-83182795D01*
X184301898Y-83104774D01*
X184101939Y-83065000D01*
X183898061Y-83065000D01*
X183698102Y-83104774D01*
X183509744Y-83182795D01*
X183350000Y-83289532D01*
X183190256Y-83182795D01*
X183001898Y-83104774D01*
X182801939Y-83065000D01*
X182598061Y-83065000D01*
X182398102Y-83104774D01*
X182209744Y-83182795D01*
X182100000Y-83256123D01*
X181990256Y-83182795D01*
X181801898Y-83104774D01*
X181601939Y-83065000D01*
X181398061Y-83065000D01*
X181198102Y-83104774D01*
X181009744Y-83182795D01*
X180840226Y-83296063D01*
X180696063Y-83440226D01*
X180582795Y-83609744D01*
X180504774Y-83798102D01*
X180465000Y-83998061D01*
X180465000Y-84060198D01*
X179488998Y-85036201D01*
X179460000Y-85059999D01*
X179436202Y-85088997D01*
X179436201Y-85088998D01*
X179365026Y-85175724D01*
X179294454Y-85307754D01*
X179273836Y-85375725D01*
X179251149Y-85450518D01*
X179250998Y-85451015D01*
X179236324Y-85600000D01*
X179240001Y-85637333D01*
X179240000Y-103985198D01*
X171460199Y-111765000D01*
X171398061Y-111765000D01*
X171198102Y-111804774D01*
X171009744Y-111882795D01*
X170840226Y-111996063D01*
X170696063Y-112140226D01*
X170582795Y-112309744D01*
X170504774Y-112498102D01*
X170465000Y-112698061D01*
X170465000Y-112901939D01*
X170504774Y-113101898D01*
X170582795Y-113290256D01*
X170696063Y-113459774D01*
X170840226Y-113603937D01*
X171009744Y-113717205D01*
X171198102Y-113795226D01*
X171398061Y-113835000D01*
X171601939Y-113835000D01*
X171801898Y-113795226D01*
X171990256Y-113717205D01*
X171996856Y-113712795D01*
X172022404Y-113729865D01*
X172210762Y-113807886D01*
X172410721Y-113847660D01*
X172614599Y-113847660D01*
X172814558Y-113807886D01*
X173002916Y-113729865D01*
X173020618Y-113718037D01*
X173028779Y-113723490D01*
X173217137Y-113801511D01*
X173417096Y-113841285D01*
X173620974Y-113841285D01*
X173820933Y-113801511D01*
X174009291Y-113723490D01*
X174061077Y-113688888D01*
X174122404Y-113729865D01*
X174310762Y-113807886D01*
X174510721Y-113847660D01*
X174714599Y-113847660D01*
X174914558Y-113807886D01*
X175102916Y-113729865D01*
X175272434Y-113616597D01*
X175416597Y-113472434D01*
X175529865Y-113302916D01*
X175607886Y-113114558D01*
X175647660Y-112914599D01*
X175647660Y-112852461D01*
X183140000Y-105360122D01*
X183140000Y-108462678D01*
X183136324Y-108500000D01*
X183140000Y-108537322D01*
X183140000Y-108537332D01*
X183150997Y-108648985D01*
X183178606Y-108740001D01*
X183194454Y-108792246D01*
X183265026Y-108924276D01*
X183297362Y-108963677D01*
X183359999Y-109040001D01*
X183389003Y-109063804D01*
X185740001Y-111414803D01*
X185740000Y-112046289D01*
X185696063Y-112090226D01*
X185582795Y-112259744D01*
X185504774Y-112448102D01*
X185465000Y-112648061D01*
X185465000Y-112851939D01*
X185504774Y-113051898D01*
X185582795Y-113240256D01*
X185696063Y-113409774D01*
X185840226Y-113553937D01*
X186009744Y-113667205D01*
X186198102Y-113745226D01*
X186398061Y-113785000D01*
X186601939Y-113785000D01*
X186801898Y-113745226D01*
X186990256Y-113667205D01*
X187000000Y-113660694D01*
X187009744Y-113667205D01*
X187198102Y-113745226D01*
X187398061Y-113785000D01*
X187601939Y-113785000D01*
X187801898Y-113745226D01*
X187990256Y-113667205D01*
X188000000Y-113660694D01*
X188009744Y-113667205D01*
X188198102Y-113745226D01*
X188398061Y-113785000D01*
X188601939Y-113785000D01*
X188801898Y-113745226D01*
X188990256Y-113667205D01*
X189159774Y-113553937D01*
X189303937Y-113409774D01*
X189417205Y-113240256D01*
X189495226Y-113051898D01*
X189535000Y-112851939D01*
X189535000Y-112648061D01*
X189495226Y-112448102D01*
X189417205Y-112259744D01*
X189303937Y-112090226D01*
X189260000Y-112046289D01*
X189260000Y-110810324D01*
X189263676Y-110773001D01*
X189260000Y-110735678D01*
X189260000Y-110735669D01*
X189249003Y-110624016D01*
X189205546Y-110480755D01*
X189194452Y-110459999D01*
X189134974Y-110348725D01*
X189063799Y-110261999D01*
X189040001Y-110233001D01*
X189011003Y-110209203D01*
X188616144Y-109814344D01*
X191115000Y-109814344D01*
X191115000Y-110185656D01*
X191187439Y-110549834D01*
X191329534Y-110892882D01*
X191535825Y-111201618D01*
X191798382Y-111464175D01*
X192107118Y-111670466D01*
X192450166Y-111812561D01*
X192814344Y-111885000D01*
X193185656Y-111885000D01*
X193549834Y-111812561D01*
X193892882Y-111670466D01*
X194201618Y-111464175D01*
X194464175Y-111201618D01*
X194670466Y-110892882D01*
X194812561Y-110549834D01*
X194885000Y-110185656D01*
X194885000Y-109814344D01*
X194812561Y-109450166D01*
X194670466Y-109107118D01*
X194464175Y-108798382D01*
X194201618Y-108535825D01*
X193892882Y-108329534D01*
X193549834Y-108187439D01*
X193185656Y-108115000D01*
X192814344Y-108115000D01*
X192450166Y-108187439D01*
X192107118Y-108329534D01*
X191798382Y-108535825D01*
X191535825Y-108798382D01*
X191329534Y-109107118D01*
X191187439Y-109450166D01*
X191115000Y-109814344D01*
X188616144Y-109814344D01*
X187990718Y-109188918D01*
X188182168Y-109227000D01*
X188817832Y-109227000D01*
X189441281Y-109102988D01*
X190028558Y-108859730D01*
X190557093Y-108506575D01*
X191006575Y-108057093D01*
X191359730Y-107528558D01*
X191602988Y-106941281D01*
X191727000Y-106317832D01*
X191727000Y-105682168D01*
X191602988Y-105058719D01*
X191359730Y-104471442D01*
X191006575Y-103942907D01*
X190557093Y-103493425D01*
X190028558Y-103140270D01*
X189441281Y-102897012D01*
X188817832Y-102773000D01*
X188182168Y-102773000D01*
X187990718Y-102811082D01*
X188538002Y-102263798D01*
X188566999Y-102240001D01*
X188661972Y-102124276D01*
X188675117Y-102099684D01*
X189611004Y-101163798D01*
X189640001Y-101140001D01*
X189701531Y-101065027D01*
X189734974Y-101024277D01*
X189805546Y-100892247D01*
X189821394Y-100840001D01*
X189849003Y-100748986D01*
X189860000Y-100637333D01*
X189860000Y-100637323D01*
X189863676Y-100600000D01*
X189860000Y-100562678D01*
X189860000Y-84803711D01*
X189903937Y-84759774D01*
X190017205Y-84590256D01*
X190095226Y-84401898D01*
X190135000Y-84201939D01*
X190135000Y-83998061D01*
X190095226Y-83798102D01*
X190017205Y-83609744D01*
X189903937Y-83440226D01*
X189759774Y-83296063D01*
X189590256Y-83182795D01*
X189401898Y-83104774D01*
X189201939Y-83065000D01*
X189139802Y-83065000D01*
X187763804Y-81689003D01*
X187740001Y-81659999D01*
X187624276Y-81565026D01*
X187492247Y-81494454D01*
X187348986Y-81450997D01*
X187237333Y-81440000D01*
X187237322Y-81440000D01*
X187200000Y-81436324D01*
X187162678Y-81440000D01*
X168003711Y-81440000D01*
X167959774Y-81396063D01*
X167790256Y-81282795D01*
X167601898Y-81204774D01*
X167401939Y-81165000D01*
X167198061Y-81165000D01*
X166998102Y-81204774D01*
X166809744Y-81282795D01*
X166640226Y-81396063D01*
X166496063Y-81540226D01*
X166382795Y-81709744D01*
X166304774Y-81898102D01*
X166265000Y-82098061D01*
X150660000Y-82098061D01*
X150660000Y-80660000D01*
X196840000Y-80660000D01*
X196840001Y-99967572D01*
G04 #@! TA.AperFunction,Conductor*
D17*
G36*
X196840001Y-99967572D02*
G01*
X196840000Y-99967582D01*
X196840001Y-114226618D01*
X191726620Y-119340000D01*
X150660000Y-119340000D01*
X150660000Y-108682168D01*
X152273000Y-108682168D01*
X152273000Y-109317832D01*
X152397012Y-109941281D01*
X152640270Y-110528558D01*
X152993425Y-111057093D01*
X153442907Y-111506575D01*
X153971442Y-111859730D01*
X154558719Y-112102988D01*
X155182168Y-112227000D01*
X155817832Y-112227000D01*
X156441281Y-112102988D01*
X157028558Y-111859730D01*
X157557093Y-111506575D01*
X158006575Y-111057093D01*
X158359730Y-110528558D01*
X158602988Y-109941281D01*
X158727000Y-109317832D01*
X158727000Y-108682168D01*
X158602988Y-108058719D01*
X158359730Y-107471442D01*
X158006575Y-106942907D01*
X157557093Y-106493425D01*
X157028558Y-106140270D01*
X156441281Y-105897012D01*
X155817832Y-105773000D01*
X155182168Y-105773000D01*
X154558719Y-105897012D01*
X153971442Y-106140270D01*
X153442907Y-106493425D01*
X152993425Y-106942907D01*
X152640270Y-107471442D01*
X152397012Y-108058719D01*
X152273000Y-108682168D01*
X150660000Y-108682168D01*
X150660000Y-98160000D01*
X153532419Y-98160000D01*
X153534718Y-98159774D01*
X153539519Y-98159740D01*
X153569333Y-98156606D01*
X153599309Y-98156606D01*
X153608474Y-98155643D01*
X154093348Y-98101256D01*
X154151863Y-98088818D01*
X154210540Y-98077200D01*
X154219343Y-98074475D01*
X154684419Y-97926944D01*
X154739391Y-97903383D01*
X154794706Y-97880584D01*
X154802812Y-97876201D01*
X155230374Y-97641147D01*
X155279736Y-97607348D01*
X155329558Y-97574247D01*
X155336658Y-97568373D01*
X155710423Y-97254747D01*
X155752286Y-97211997D01*
X155794721Y-97169858D01*
X155800545Y-97162717D01*
X156106274Y-96782467D01*
X156139034Y-96732404D01*
X156172479Y-96682820D01*
X156176805Y-96674683D01*
X156402854Y-96242291D01*
X156425250Y-96186859D01*
X156448444Y-96131683D01*
X156451107Y-96122861D01*
X156588865Y-95654798D01*
X156600066Y-95596079D01*
X156612103Y-95537442D01*
X156613002Y-95528271D01*
X156657223Y-95042365D01*
X156656805Y-94982547D01*
X156657223Y-94922730D01*
X156656323Y-94913558D01*
X156605322Y-94428316D01*
X156593302Y-94369760D01*
X156582086Y-94310959D01*
X156579422Y-94302138D01*
X156435142Y-93836044D01*
X156411954Y-93780881D01*
X156389552Y-93725435D01*
X156385226Y-93717299D01*
X156153162Y-93288106D01*
X156119729Y-93238539D01*
X156086958Y-93188460D01*
X156081134Y-93181319D01*
X155770125Y-92805374D01*
X155727708Y-92763252D01*
X155685826Y-92720483D01*
X155678725Y-92714610D01*
X155300618Y-92406233D01*
X155250809Y-92373141D01*
X155201437Y-92339334D01*
X155193331Y-92334952D01*
X154762527Y-92105890D01*
X154707233Y-92083099D01*
X154652240Y-92059529D01*
X154643437Y-92056804D01*
X154176347Y-91915781D01*
X154117653Y-91904159D01*
X154059156Y-91891725D01*
X154049991Y-91890762D01*
X153564405Y-91843150D01*
X153564402Y-91843150D01*
X153532419Y-91840000D01*
X150660000Y-91840000D01*
X150660000Y-90160000D01*
X151532419Y-90160000D01*
X151565884Y-90156704D01*
X151585349Y-90156704D01*
X151594514Y-90155741D01*
X151885438Y-90123108D01*
X151943941Y-90110672D01*
X152002629Y-90099052D01*
X152011432Y-90096327D01*
X152290476Y-90007809D01*
X152345412Y-89984263D01*
X152400764Y-89961449D01*
X152408870Y-89957065D01*
X152665408Y-89816032D01*
X152714753Y-89782245D01*
X152764591Y-89749133D01*
X152771691Y-89743259D01*
X152995949Y-89555084D01*
X153037793Y-89512354D01*
X153080248Y-89470195D01*
X153086072Y-89463053D01*
X153269509Y-89234903D01*
X153302251Y-89184869D01*
X153335714Y-89135258D01*
X153340040Y-89127122D01*
X153475670Y-88867687D01*
X153498082Y-88812215D01*
X153521260Y-88757077D01*
X153523923Y-88748255D01*
X153606578Y-88467417D01*
X153617785Y-88408669D01*
X153629816Y-88350059D01*
X153630715Y-88340888D01*
X153657247Y-88049344D01*
X153656829Y-87989528D01*
X153657247Y-87929712D01*
X153656348Y-87920541D01*
X153625748Y-87629395D01*
X153613710Y-87570753D01*
X153602510Y-87512037D01*
X153599847Y-87503216D01*
X153513279Y-87223560D01*
X153490101Y-87168422D01*
X153467689Y-87112950D01*
X153463362Y-87104814D01*
X153324123Y-86847298D01*
X153290701Y-86797749D01*
X153257920Y-86747653D01*
X153252095Y-86740512D01*
X153065490Y-86514945D01*
X153023054Y-86472804D01*
X152981191Y-86430055D01*
X152975081Y-86425000D01*
X155936928Y-86425000D01*
X155949188Y-86549482D01*
X155985498Y-86669180D01*
X155990168Y-86677917D01*
X155980460Y-86709938D01*
X156107743Y-86873000D01*
X156121201Y-86873000D01*
X156123815Y-86876185D01*
X156220506Y-86955537D01*
X156330820Y-87014502D01*
X156450518Y-87050812D01*
X156507969Y-87056470D01*
X156497902Y-87060640D01*
X156398587Y-87127000D01*
X156107743Y-87127000D01*
X155980460Y-87290062D01*
X155991128Y-87325250D01*
X156063994Y-87492882D01*
X156060640Y-87497902D01*
X155980735Y-87690809D01*
X155940000Y-87895599D01*
X155940000Y-88104401D01*
X155980735Y-88309191D01*
X156059771Y-88500000D01*
X155980735Y-88690809D01*
X155940000Y-88895599D01*
X155940000Y-89104401D01*
X155980735Y-89309191D01*
X156059771Y-89500000D01*
X155980735Y-89690809D01*
X155940000Y-89895599D01*
X155940000Y-90104401D01*
X155980735Y-90309191D01*
X156059771Y-90500000D01*
X155980735Y-90690809D01*
X155940000Y-90895599D01*
X155940000Y-91104401D01*
X155980735Y-91309191D01*
X156060640Y-91502098D01*
X156176644Y-91675711D01*
X156324289Y-91823356D01*
X156497902Y-91939360D01*
X156690809Y-92019265D01*
X156895599Y-92060000D01*
X157104401Y-92060000D01*
X157309191Y-92019265D01*
X157502098Y-91939360D01*
X157675711Y-91823356D01*
X157823356Y-91675711D01*
X157939360Y-91502098D01*
X158019265Y-91309191D01*
X158060000Y-91104401D01*
X158060000Y-90895599D01*
X158033028Y-90760000D01*
X158985199Y-90760000D01*
X164836201Y-96611003D01*
X164859999Y-96640001D01*
X164975724Y-96734974D01*
X165107753Y-96805546D01*
X165251014Y-96849003D01*
X165362667Y-96860000D01*
X165362675Y-96860000D01*
X165400000Y-96863676D01*
X165437325Y-96860000D01*
X176896289Y-96860000D01*
X176940226Y-96903937D01*
X177109744Y-97017205D01*
X177298102Y-97095226D01*
X177498061Y-97135000D01*
X177701939Y-97135000D01*
X177901898Y-97095226D01*
X178090256Y-97017205D01*
X178259774Y-96903937D01*
X178403937Y-96759774D01*
X178517205Y-96590256D01*
X178595226Y-96401898D01*
X178635000Y-96201939D01*
X178635000Y-95998061D01*
X178595226Y-95798102D01*
X178517205Y-95609744D01*
X178510694Y-95600000D01*
X178517205Y-95590256D01*
X178595226Y-95401898D01*
X178635000Y-95201939D01*
X178635000Y-94998061D01*
X178595226Y-94798102D01*
X178517205Y-94609744D01*
X178510694Y-94600000D01*
X178517205Y-94590256D01*
X178595226Y-94401898D01*
X178635000Y-94201939D01*
X178635000Y-93998061D01*
X178595226Y-93798102D01*
X178517205Y-93609744D01*
X178403937Y-93440226D01*
X178259774Y-93296063D01*
X178090256Y-93182795D01*
X177901898Y-93104774D01*
X177701939Y-93065000D01*
X177498061Y-93065000D01*
X177298102Y-93104774D01*
X177109744Y-93182795D01*
X176940226Y-93296063D01*
X176896289Y-93340000D01*
X166533007Y-93340000D01*
X163069814Y-89876807D01*
X163080533Y-89872421D01*
X163252089Y-89758854D01*
X163310552Y-89806833D01*
X163525100Y-89921511D01*
X163757899Y-89992130D01*
X164000000Y-90015975D01*
X164242102Y-89992130D01*
X164474901Y-89921511D01*
X164689449Y-89806833D01*
X164877502Y-89652502D01*
X165031833Y-89464449D01*
X165146511Y-89249900D01*
X165217130Y-89017101D01*
X165235000Y-88835664D01*
X165235000Y-88164335D01*
X165217130Y-87982898D01*
X165146511Y-87750099D01*
X165031833Y-87535551D01*
X164877502Y-87347498D01*
X164689448Y-87193167D01*
X164474900Y-87078489D01*
X164242101Y-87007870D01*
X164000000Y-86984025D01*
X163757898Y-87007870D01*
X163525099Y-87078489D01*
X163310551Y-87193167D01*
X163252089Y-87241146D01*
X163080533Y-87127579D01*
X162855282Y-87035409D01*
X162817609Y-87031538D01*
X162627000Y-87156269D01*
X162627000Y-88373000D01*
X162647000Y-88373000D01*
X162647000Y-88627000D01*
X162627000Y-88627000D01*
X162627000Y-88647000D01*
X162373000Y-88647000D01*
X162373000Y-88627000D01*
X162353000Y-88627000D01*
X162353000Y-88373000D01*
X162373000Y-88373000D01*
X162373000Y-87156269D01*
X162182391Y-87031538D01*
X162144718Y-87035409D01*
X161919467Y-87127579D01*
X161716526Y-87261922D01*
X161543693Y-87433275D01*
X161407610Y-87635054D01*
X161313507Y-87859504D01*
X161269395Y-88076389D01*
X160682009Y-87489003D01*
X160658206Y-87459999D01*
X160542481Y-87365026D01*
X160410452Y-87294454D01*
X160267191Y-87250997D01*
X160155538Y-87240000D01*
X160155527Y-87240000D01*
X160118205Y-87236324D01*
X160080883Y-87240000D01*
X157980463Y-87240000D01*
X157892257Y-87127000D01*
X157601413Y-87127000D01*
X157502098Y-87060640D01*
X157492031Y-87056470D01*
X157549482Y-87050812D01*
X157669180Y-87014502D01*
X157779494Y-86955537D01*
X157876185Y-86876185D01*
X157878799Y-86873000D01*
X157892257Y-86873000D01*
X158019540Y-86709938D01*
X158009832Y-86677917D01*
X158014502Y-86669180D01*
X158050812Y-86549482D01*
X158063072Y-86425000D01*
X158060000Y-86285750D01*
X157901250Y-86127000D01*
X157592768Y-86127000D01*
X157483394Y-86056632D01*
X157290064Y-85980453D01*
X157127000Y-86106379D01*
X157127000Y-86147000D01*
X156873000Y-86147000D01*
X156873000Y-86106379D01*
X156709936Y-85980453D01*
X156516606Y-86056632D01*
X156407232Y-86127000D01*
X156098750Y-86127000D01*
X155940000Y-86285750D01*
X155936928Y-86425000D01*
X152975081Y-86425000D01*
X152974091Y-86424181D01*
X152747227Y-86239155D01*
X152697408Y-86206055D01*
X152648045Y-86172256D01*
X152639939Y-86167873D01*
X152381458Y-86030436D01*
X152326164Y-86007645D01*
X152271171Y-85984075D01*
X152262368Y-85981350D01*
X151982114Y-85896736D01*
X151923429Y-85885116D01*
X151864921Y-85872680D01*
X151855758Y-85871717D01*
X151855756Y-85871717D01*
X151564404Y-85843150D01*
X151564402Y-85843150D01*
X151532419Y-85840000D01*
X150660000Y-85840000D01*
X150660000Y-85575000D01*
X155936928Y-85575000D01*
X155940000Y-85714250D01*
X156098750Y-85873000D01*
X156873000Y-85873000D01*
X156873000Y-85098750D01*
X157127000Y-85098750D01*
X157127000Y-85873000D01*
X157901250Y-85873000D01*
X158060000Y-85714250D01*
X158063072Y-85575000D01*
X158050812Y-85450518D01*
X158014502Y-85330820D01*
X157955537Y-85220506D01*
X157876185Y-85123815D01*
X157779494Y-85044463D01*
X157669180Y-84985498D01*
X157549482Y-84949188D01*
X157425000Y-84936928D01*
X157285750Y-84940000D01*
X157127000Y-85098750D01*
X156873000Y-85098750D01*
X156714250Y-84940000D01*
X156575000Y-84936928D01*
X156450518Y-84949188D01*
X156330820Y-84985498D01*
X156220506Y-85044463D01*
X156123815Y-85123815D01*
X156044463Y-85220506D01*
X155985498Y-85330820D01*
X155949188Y-85450518D01*
X155936928Y-85575000D01*
X150660000Y-85575000D01*
X150660000Y-82098061D01*
X166265000Y-82098061D01*
X166265000Y-82301939D01*
X166304774Y-82501898D01*
X166382795Y-82690256D01*
X166496063Y-82859774D01*
X166640226Y-83003937D01*
X166809744Y-83117205D01*
X166998102Y-83195226D01*
X167198061Y-83235000D01*
X167401939Y-83235000D01*
X167601898Y-83195226D01*
X167790256Y-83117205D01*
X167959774Y-83003937D01*
X168003711Y-82960000D01*
X186885199Y-82960000D01*
X187188803Y-83263605D01*
X187150000Y-83289532D01*
X186990256Y-83182795D01*
X186801898Y-83104774D01*
X186601939Y-83065000D01*
X186398061Y-83065000D01*
X186198102Y-83104774D01*
X186009744Y-83182795D01*
X185900000Y-83256123D01*
X185790256Y-83182795D01*
X185601898Y-83104774D01*
X185401939Y-83065000D01*
X185198061Y-83065000D01*
X184998102Y-83104774D01*
X184809744Y-83182795D01*
X184650000Y-83289532D01*
X184490256Y-83182795D01*
X184301898Y-83104774D01*
X184101939Y-83065000D01*
X183898061Y-83065000D01*
X183698102Y-83104774D01*
X183509744Y-83182795D01*
X183350000Y-83289532D01*
X183190256Y-83182795D01*
X183001898Y-83104774D01*
X182801939Y-83065000D01*
X182598061Y-83065000D01*
X182398102Y-83104774D01*
X182209744Y-83182795D01*
X182100000Y-83256123D01*
X181990256Y-83182795D01*
X181801898Y-83104774D01*
X181601939Y-83065000D01*
X181398061Y-83065000D01*
X181198102Y-83104774D01*
X181009744Y-83182795D01*
X180840226Y-83296063D01*
X180696063Y-83440226D01*
X180582795Y-83609744D01*
X180504774Y-83798102D01*
X180465000Y-83998061D01*
X180465000Y-84060198D01*
X179488998Y-85036201D01*
X179460000Y-85059999D01*
X179436202Y-85088997D01*
X179436201Y-85088998D01*
X179365026Y-85175724D01*
X179294454Y-85307754D01*
X179273836Y-85375725D01*
X179251149Y-85450518D01*
X179250998Y-85451015D01*
X179236324Y-85600000D01*
X179240001Y-85637333D01*
X179240000Y-103985198D01*
X171460199Y-111765000D01*
X171398061Y-111765000D01*
X171198102Y-111804774D01*
X171009744Y-111882795D01*
X170840226Y-111996063D01*
X170696063Y-112140226D01*
X170582795Y-112309744D01*
X170504774Y-112498102D01*
X170465000Y-112698061D01*
X170465000Y-112901939D01*
X170504774Y-113101898D01*
X170582795Y-113290256D01*
X170696063Y-113459774D01*
X170840226Y-113603937D01*
X171009744Y-113717205D01*
X171198102Y-113795226D01*
X171398061Y-113835000D01*
X171601939Y-113835000D01*
X171801898Y-113795226D01*
X171990256Y-113717205D01*
X171996856Y-113712795D01*
X172022404Y-113729865D01*
X172210762Y-113807886D01*
X172410721Y-113847660D01*
X172614599Y-113847660D01*
X172814558Y-113807886D01*
X173002916Y-113729865D01*
X173020618Y-113718037D01*
X173028779Y-113723490D01*
X173217137Y-113801511D01*
X173417096Y-113841285D01*
X173620974Y-113841285D01*
X173820933Y-113801511D01*
X174009291Y-113723490D01*
X174061077Y-113688888D01*
X174122404Y-113729865D01*
X174310762Y-113807886D01*
X174510721Y-113847660D01*
X174714599Y-113847660D01*
X174914558Y-113807886D01*
X175102916Y-113729865D01*
X175272434Y-113616597D01*
X175416597Y-113472434D01*
X175529865Y-113302916D01*
X175607886Y-113114558D01*
X175647660Y-112914599D01*
X175647660Y-112852461D01*
X183140000Y-105360122D01*
X183140000Y-108462678D01*
X183136324Y-108500000D01*
X183140000Y-108537322D01*
X183140000Y-108537332D01*
X183150997Y-108648985D01*
X183178606Y-108740001D01*
X183194454Y-108792246D01*
X183265026Y-108924276D01*
X183297362Y-108963677D01*
X183359999Y-109040001D01*
X183389003Y-109063804D01*
X185740001Y-111414803D01*
X185740000Y-112046289D01*
X185696063Y-112090226D01*
X185582795Y-112259744D01*
X185504774Y-112448102D01*
X185465000Y-112648061D01*
X185465000Y-112851939D01*
X185504774Y-113051898D01*
X185582795Y-113240256D01*
X185696063Y-113409774D01*
X185840226Y-113553937D01*
X186009744Y-113667205D01*
X186198102Y-113745226D01*
X186398061Y-113785000D01*
X186601939Y-113785000D01*
X186801898Y-113745226D01*
X186990256Y-113667205D01*
X187000000Y-113660694D01*
X187009744Y-113667205D01*
X187198102Y-113745226D01*
X187398061Y-113785000D01*
X187601939Y-113785000D01*
X187801898Y-113745226D01*
X187990256Y-113667205D01*
X188000000Y-113660694D01*
X188009744Y-113667205D01*
X188198102Y-113745226D01*
X188398061Y-113785000D01*
X188601939Y-113785000D01*
X188801898Y-113745226D01*
X188990256Y-113667205D01*
X189159774Y-113553937D01*
X189303937Y-113409774D01*
X189417205Y-113240256D01*
X189495226Y-113051898D01*
X189535000Y-112851939D01*
X189535000Y-112648061D01*
X189495226Y-112448102D01*
X189417205Y-112259744D01*
X189303937Y-112090226D01*
X189260000Y-112046289D01*
X189260000Y-110810324D01*
X189263676Y-110773001D01*
X189260000Y-110735678D01*
X189260000Y-110735669D01*
X189249003Y-110624016D01*
X189205546Y-110480755D01*
X189194452Y-110459999D01*
X189134974Y-110348725D01*
X189063799Y-110261999D01*
X189040001Y-110233001D01*
X189011003Y-110209203D01*
X188616144Y-109814344D01*
X191115000Y-109814344D01*
X191115000Y-110185656D01*
X191187439Y-110549834D01*
X191329534Y-110892882D01*
X191535825Y-111201618D01*
X191798382Y-111464175D01*
X192107118Y-111670466D01*
X192450166Y-111812561D01*
X192814344Y-111885000D01*
X193185656Y-111885000D01*
X193549834Y-111812561D01*
X193892882Y-111670466D01*
X194201618Y-111464175D01*
X194464175Y-111201618D01*
X194670466Y-110892882D01*
X194812561Y-110549834D01*
X194885000Y-110185656D01*
X194885000Y-109814344D01*
X194812561Y-109450166D01*
X194670466Y-109107118D01*
X194464175Y-108798382D01*
X194201618Y-108535825D01*
X193892882Y-108329534D01*
X193549834Y-108187439D01*
X193185656Y-108115000D01*
X192814344Y-108115000D01*
X192450166Y-108187439D01*
X192107118Y-108329534D01*
X191798382Y-108535825D01*
X191535825Y-108798382D01*
X191329534Y-109107118D01*
X191187439Y-109450166D01*
X191115000Y-109814344D01*
X188616144Y-109814344D01*
X187990718Y-109188918D01*
X188182168Y-109227000D01*
X188817832Y-109227000D01*
X189441281Y-109102988D01*
X190028558Y-108859730D01*
X190557093Y-108506575D01*
X191006575Y-108057093D01*
X191359730Y-107528558D01*
X191602988Y-106941281D01*
X191727000Y-106317832D01*
X191727000Y-105682168D01*
X191602988Y-105058719D01*
X191359730Y-104471442D01*
X191006575Y-103942907D01*
X190557093Y-103493425D01*
X190028558Y-103140270D01*
X189441281Y-102897012D01*
X188817832Y-102773000D01*
X188182168Y-102773000D01*
X187990718Y-102811082D01*
X188538002Y-102263798D01*
X188566999Y-102240001D01*
X188661972Y-102124276D01*
X188675117Y-102099684D01*
X189611004Y-101163798D01*
X189640001Y-101140001D01*
X189701531Y-101065027D01*
X189734974Y-101024277D01*
X189805546Y-100892247D01*
X189821394Y-100840001D01*
X189849003Y-100748986D01*
X189860000Y-100637333D01*
X189860000Y-100637323D01*
X189863676Y-100600000D01*
X189860000Y-100562678D01*
X189860000Y-84803711D01*
X189903937Y-84759774D01*
X190017205Y-84590256D01*
X190095226Y-84401898D01*
X190135000Y-84201939D01*
X190135000Y-83998061D01*
X190095226Y-83798102D01*
X190017205Y-83609744D01*
X189903937Y-83440226D01*
X189759774Y-83296063D01*
X189590256Y-83182795D01*
X189401898Y-83104774D01*
X189201939Y-83065000D01*
X189139802Y-83065000D01*
X187763804Y-81689003D01*
X187740001Y-81659999D01*
X187624276Y-81565026D01*
X187492247Y-81494454D01*
X187348986Y-81450997D01*
X187237333Y-81440000D01*
X187237322Y-81440000D01*
X187200000Y-81436324D01*
X187162678Y-81440000D01*
X168003711Y-81440000D01*
X167959774Y-81396063D01*
X167790256Y-81282795D01*
X167601898Y-81204774D01*
X167401939Y-81165000D01*
X167198061Y-81165000D01*
X166998102Y-81204774D01*
X166809744Y-81282795D01*
X166640226Y-81396063D01*
X166496063Y-81540226D01*
X166382795Y-81709744D01*
X166304774Y-81898102D01*
X166265000Y-82098061D01*
X150660000Y-82098061D01*
X150660000Y-80660000D01*
X196840000Y-80660000D01*
X196840001Y-99967572D01*
G37*
G04 #@! TD.AperFunction*
D16*
X187040000Y-99985198D02*
X184660000Y-102365199D01*
X184660000Y-87014801D01*
X186539802Y-85135000D01*
X186601939Y-85135000D01*
X186801898Y-85095226D01*
X186990256Y-85017205D01*
X187040001Y-84983967D01*
X187040000Y-99985198D01*
G04 #@! TA.AperFunction,Conductor*
D17*
G36*
X187040000Y-99985198D02*
G01*
X184660000Y-102365199D01*
X184660000Y-87014801D01*
X186539802Y-85135000D01*
X186601939Y-85135000D01*
X186801898Y-85095226D01*
X186990256Y-85017205D01*
X187040001Y-84983967D01*
X187040000Y-99985198D01*
G37*
G04 #@! TD.AperFunction*
M02*
