M48
; DRILL file {KiCad 5.1.8} date Sun Nov 29 11:20:16 2020
; FORMAT={-:-/ absolute / inch / decimal}
; #@! TF.CreationDate,2020-11-29T11:20:16+01:00
; #@! TF.GenerationSoftware,Kicad,Pcbnew,5.1.8
; #@! TF.FileFunction,Plated,1,2,PTH
FMAT,2
INCH
T1C0.0157
T2C0.0197
T3C0.0295
%
G90
G05
T1
X5.9843Y-3.2283
X5.9843Y-3.3071
X5.9843Y-3.8976
X5.9843Y-3.9764
X5.9843Y-4.0551
X5.9843Y-4.1339
X5.9843Y-4.2126
X5.9843Y-4.2913
X5.9843Y-4.3701
X5.9843Y-4.4488
X5.9843Y-4.5276
X5.9843Y-4.6063
X6.063Y-3.2283
X6.063Y-3.3071
X6.063Y-3.3858
X6.063Y-3.4646
X6.063Y-3.5433
X6.063Y-3.8976
X6.063Y-3.9764
X6.063Y-4.0551
X6.063Y-4.1339
X6.063Y-4.4488
X6.063Y-4.5276
X6.063Y-4.6063
X6.1417Y-3.2283
X6.1417Y-3.8976
X6.1417Y-3.9764
X6.1417Y-4.0551
X6.1417Y-4.1339
X6.1417Y-4.4488
X6.2205Y-3.2283
X6.2205Y-3.6614
X6.2205Y-3.7402
X6.2205Y-3.8189
X6.2205Y-3.8976
X6.2205Y-3.9764
X6.2205Y-4.0551
X6.2205Y-4.1339
X6.2205Y-4.4488
X6.2992Y-3.2283
X6.2992Y-3.3071
X6.2992Y-3.6614
X6.2992Y-3.7402
X6.2992Y-3.8189
X6.2992Y-3.8976
X6.2992Y-3.9764
X6.2992Y-4.0551
X6.2992Y-4.1339
X6.2992Y-4.2126
X6.2992Y-4.2913
X6.2992Y-4.3701
X6.378Y-3.2283
X6.378Y-3.3071
X6.4567Y-3.2283
X6.4567Y-3.3071
X6.5866Y-3.2362
X6.6142Y-3.4252
X6.6142Y-3.5039
X6.6929Y-3.4252
X6.752Y-4.4409
X6.7717Y-3.8976
X6.7717Y-3.9764
X6.7717Y-4.0551
X6.7717Y-4.1339
X6.7717Y-4.2126
X6.7717Y-4.2913
X6.7717Y-4.3701
X6.7918Y-4.4414
X6.8315Y-4.4412
X6.8504Y-3.8976
X6.8504Y-3.9764
X6.8504Y-4.0551
X6.8504Y-4.1339
X6.8504Y-4.2126
X6.8504Y-4.2913
X6.8745Y-4.4414
X6.9921Y-3.7047
X6.9921Y-3.7441
X6.9921Y-3.7835
X7.0079Y-3.3465
X7.0079Y-3.4252
X7.0079Y-3.5039
X7.0079Y-3.5827
X7.1457Y-3.311
X7.1929Y-3.311
X7.2441Y-3.311
X7.2953Y-3.311
X7.3228Y-3.4646
X7.3228Y-3.5433
X7.3228Y-3.622
X7.3425Y-3.311
X7.3425Y-4.439
X7.3819Y-4.439
X7.3937Y-3.311
X7.4213Y-4.439
X7.4449Y-3.311
X7.5197Y-4.4882
X7.5591Y-3.3465
X7.5591Y-3.4252
X7.5591Y-3.5039
X7.5591Y-3.5827
X7.5591Y-3.6614
X7.5591Y-3.7402
X7.5591Y-3.8189
X7.5984Y-4.0157
X7.5984Y-4.0945
X7.5984Y-4.1732
X7.5984Y-4.4882
X7.6378Y-3.3465
X7.6378Y-3.4252
X7.6378Y-3.5039
X7.6378Y-3.5827
X7.6378Y-3.6614
X7.6378Y-3.7402
X7.6378Y-3.8189
X7.6772Y-4.0157
X7.6772Y-4.0945
X7.6772Y-4.1732
X7.6772Y-4.4882
X7.7165Y-3.3465
X7.7165Y-3.4252
X7.7165Y-3.5039
X7.7165Y-3.5827
X7.7165Y-3.6614
X7.7165Y-3.7402
X7.7165Y-3.8189
X7.7362Y-4.0157
X7.7362Y-4.0945
X7.7362Y-4.1732
X7.7362Y-4.252
X7.7362Y-4.3307
X7.7362Y-4.4094
T2
X6.1811Y-3.3858
X6.1811Y-3.4252
X6.1811Y-3.4646
X6.1811Y-3.5039
X6.1811Y-3.5433
X6.1811Y-3.5827
T3
X6.3976Y-3.4843
X6.4567Y-3.4843
T0
M30
